<svg id="svg" version="1.1" xmlns="http://www.w3.org/2000/svg" xmlns:xlink="http://www.w3.org/1999/xlink" width="400" height="247.05882352941177" viewBox="0, 0, 400,247.05882352941177"><g id="svgg"><path id="path0" d="M6.785 11.180 C 6.721 11.350,6.696 62.965,6.731 125.880 L 6.794 240.272 199.506 240.272 L 392.217 240.272 392.217 125.633 L 392.217 10.994 199.560 10.933 C 45.563 10.883,6.879 10.933,6.785 11.180 M70.783 30.052 C 71.367 30.636,71.251 48.799,70.661 49.172 C 70.074 49.542,38.964 49.489,38.592 49.117 C 38.166 48.691,38.166 30.370,38.592 29.944 C 39.114 29.423,70.258 29.527,70.783 30.052 M360.420 29.944 C 360.845 30.370,360.845 48.691,360.420 49.117 C 359.988 49.549,103.261 49.549,102.829 49.117 C 102.403 48.691,102.403 30.370,102.829 29.944 C 103.261 29.512,359.988 29.512,360.420 29.944 M360.461 68.421 C 360.738 68.939,360.843 220.507,360.567 221.227 C 360.336 221.828,38.676 221.828,38.445 221.227 C 38.169 220.507,38.274 68.939,38.551 68.421 C 38.954 67.668,360.057 67.668,360.461 68.421 M97.184 100.801 C 96.892 100.919,96.579 101.136,96.488 101.284 C 96.397 101.431,95.968 101.718,95.536 101.920 C 95.104 102.123,94.305 102.562,93.762 102.896 C 93.218 103.230,92.420 103.672,91.987 103.879 C 91.555 104.085,91.130 104.369,91.044 104.509 C 90.957 104.649,90.533 104.929,90.100 105.132 C 89.668 105.335,88.870 105.773,88.326 106.105 C 87.783 106.437,87.060 106.849,86.720 107.020 C 86.380 107.191,85.788 107.585,85.404 107.896 C 85.020 108.208,84.611 108.462,84.495 108.462 C 84.379 108.462,83.637 108.891,82.846 109.415 C 82.055 109.940,81.158 110.448,80.852 110.544 C 80.547 110.640,80.296 110.811,80.296 110.922 C 80.296 111.034,79.852 111.304,79.308 111.522 C 78.765 111.739,78.320 112.005,78.320 112.112 C 78.320 112.219,77.994 112.430,77.595 112.580 C 76.698 112.919,76.805 113.785,77.798 114.225 C 78.457 114.516,79.946 115.430,80.456 115.857 C 80.612 115.987,81.141 116.261,81.630 116.465 C 82.120 116.670,82.520 116.942,82.520 117.070 C 82.520 117.198,82.804 117.374,83.152 117.461 C 83.500 117.549,84.326 118.001,84.987 118.466 C 85.649 118.931,86.587 119.477,87.073 119.680 C 87.558 119.883,87.956 120.143,87.956 120.259 C 87.956 120.374,88.345 120.610,88.820 120.782 C 89.296 120.954,89.685 121.187,89.685 121.301 C 89.685 121.415,89.991 121.631,90.364 121.781 C 90.738 121.932,91.544 122.383,92.156 122.785 C 92.767 123.186,93.601 123.689,94.009 123.903 C 94.416 124.117,95.195 124.562,95.738 124.891 C 96.282 125.221,97.116 125.722,97.591 126.004 C 98.067 126.286,98.901 126.786,99.444 127.116 C 99.988 127.446,100.766 127.891,101.174 128.104 C 101.581 128.318,102.415 128.818,103.027 129.216 C 103.638 129.613,104.472 130.092,104.880 130.280 C 105.287 130.468,105.773 130.805,105.960 131.030 C 106.146 131.255,106.447 131.439,106.628 131.439 C 106.975 131.439,108.536 132.379,109.259 133.023 C 109.493 133.232,109.967 133.474,110.312 133.561 C 110.657 133.647,111.021 133.856,111.121 134.025 C 111.221 134.194,111.553 134.463,111.859 134.624 C 112.602 135.014,112.560 135.488,111.736 136.027 C 111.362 136.271,110.909 136.617,110.730 136.796 C 110.550 136.975,110.185 137.122,109.919 137.122 C 109.653 137.122,109.375 137.278,109.301 137.470 C 109.228 137.661,108.814 137.957,108.382 138.128 C 107.951 138.299,107.402 138.605,107.163 138.808 C 106.642 139.252,105.902 139.693,104.812 140.209 C 104.367 140.420,103.784 140.812,103.515 141.080 C 103.246 141.349,102.804 141.569,102.532 141.569 C 102.261 141.569,102.038 141.686,102.038 141.829 C 102.038 141.971,101.677 142.259,101.235 142.468 C 99.928 143.086,98.820 143.722,98.377 144.111 C 98.149 144.311,97.684 144.560,97.345 144.664 C 97.006 144.768,96.617 144.993,96.480 145.164 C 96.344 145.336,95.569 145.824,94.758 146.250 C 93.948 146.676,93.114 147.165,92.905 147.337 C 92.697 147.509,92.248 147.784,91.909 147.949 C 91.569 148.113,90.791 148.575,90.179 148.976 C 89.568 149.376,88.734 149.875,88.326 150.085 C 87.918 150.295,87.140 150.738,86.597 151.070 C 86.053 151.402,85.247 151.867,84.805 152.103 C 84.364 152.338,84.002 152.613,84.002 152.713 C 84.002 152.814,83.613 153.024,83.138 153.181 C 82.662 153.338,82.273 153.560,82.273 153.675 C 82.273 153.790,81.893 154.009,81.428 154.163 C 80.963 154.316,80.444 154.609,80.274 154.814 C 80.104 155.019,79.623 155.350,79.204 155.551 C 76.759 156.725,76.365 157.532,77.888 158.244 C 78.329 158.451,79.135 158.890,79.679 159.219 C 80.222 159.549,81.056 160.053,81.532 160.339 C 82.007 160.625,82.841 161.127,83.385 161.454 C 83.928 161.782,84.612 162.160,84.905 162.294 C 85.198 162.429,85.513 162.662,85.605 162.812 C 85.698 162.962,86.209 163.259,86.741 163.471 C 87.273 163.684,87.708 163.947,87.708 164.055 C 87.708 164.162,88.014 164.371,88.388 164.519 C 89.228 164.850,90.575 165.623,91.125 166.091 C 91.352 166.283,91.899 166.584,92.341 166.759 C 92.783 166.934,93.144 167.163,93.144 167.270 C 93.144 167.376,93.450 167.585,93.823 167.736 C 94.197 167.886,95.003 168.339,95.615 168.743 C 97.789 170.179,98.503 170.290,99.819 169.399 C 100.292 169.078,100.930 168.737,101.235 168.641 C 101.541 168.545,101.791 168.371,101.791 168.255 C 101.791 168.138,102.180 167.915,102.656 167.758 C 103.132 167.601,103.521 167.391,103.521 167.290 C 103.521 167.190,103.882 166.915,104.324 166.680 C 104.765 166.444,105.571 165.978,106.115 165.644 C 106.658 165.310,107.520 164.854,108.030 164.630 C 108.539 164.407,108.956 164.131,108.956 164.018 C 108.956 163.904,109.317 163.639,109.759 163.429 C 110.201 163.218,111.007 162.774,111.550 162.442 C 112.094 162.110,112.817 161.703,113.156 161.538 C 113.496 161.373,113.961 161.083,114.189 160.893 C 114.638 160.519,115.791 159.851,117.005 159.262 C 117.424 159.058,117.910 158.719,118.086 158.507 C 118.261 158.295,118.597 158.122,118.831 158.122 C 119.065 158.122,119.458 157.900,119.704 157.628 C 119.949 157.356,120.266 157.134,120.408 157.134 C 120.642 157.134,121.503 156.614,123.338 155.366 C 123.706 155.115,124.182 154.910,124.396 154.910 C 124.609 154.910,124.845 154.752,124.919 154.559 C 124.993 154.366,125.462 154.032,125.961 153.817 C 126.952 153.390,127.448 153.101,128.643 152.255 C 129.076 151.949,129.544 151.699,129.684 151.699 C 129.823 151.699,130.136 151.490,130.380 151.235 C 130.623 150.980,131.099 150.687,131.439 150.584 C 131.779 150.481,132.112 150.328,132.180 150.244 C 132.378 149.999,134.912 148.487,135.123 148.487 C 135.229 148.487,135.511 148.271,135.750 148.007 C 135.989 147.743,136.507 147.456,136.900 147.369 C 137.294 147.283,137.616 147.111,137.616 146.988 C 137.616 146.865,137.977 146.590,138.419 146.377 C 139.741 145.739,140.836 145.096,141.277 144.699 C 141.506 144.493,141.998 144.249,142.372 144.156 C 142.746 144.062,143.051 143.892,143.051 143.777 C 143.051 143.662,143.435 143.386,143.905 143.164 C 144.374 142.941,144.888 142.602,145.047 142.411 C 145.205 142.220,145.530 142.063,145.769 142.063 C 146.007 142.063,146.346 141.890,146.522 141.678 C 146.698 141.466,147.184 141.133,147.602 140.936 C 148.021 140.740,148.863 140.250,149.475 139.848 C 150.086 139.446,150.920 138.945,151.328 138.735 C 151.736 138.525,152.481 138.104,152.985 137.799 C 153.488 137.495,154.633 136.820,155.530 136.299 L 157.160 135.353 156.097 134.675 C 155.512 134.302,154.700 133.783,154.293 133.522 C 153.885 133.261,153.274 132.903,152.934 132.728 C 152.594 132.553,151.872 132.140,151.328 131.810 C 150.784 131.480,149.951 130.980,149.475 130.698 C 148.999 130.416,148.166 129.919,147.622 129.594 C 147.078 129.269,146.300 128.813,145.893 128.580 C 145.485 128.348,145.096 128.084,145.028 127.994 C 144.960 127.903,144.551 127.686,144.119 127.511 C 143.687 127.337,143.274 127.037,143.200 126.846 C 143.127 126.654,142.869 126.496,142.627 126.493 C 142.257 126.490,140.611 125.546,139.716 124.826 C 139.580 124.716,139.115 124.482,138.684 124.304 C 138.252 124.127,137.838 123.825,137.765 123.634 C 137.691 123.443,137.428 123.286,137.180 123.286 C 136.931 123.286,136.511 123.119,136.245 122.915 C 135.315 122.201,133.886 121.309,133.671 121.309 C 133.551 121.309,133.132 121.039,132.739 120.708 C 132.345 120.377,131.725 120.031,131.361 119.940 C 130.996 119.848,130.698 119.676,130.698 119.557 C 130.698 119.437,130.337 119.174,129.895 118.971 C 129.129 118.619,128.874 118.473,127.510 117.609 C 126.110 116.722,125.091 116.113,124.398 115.750 C 123.990 115.536,123.156 115.036,122.545 114.639 C 121.933 114.241,121.099 113.741,120.692 113.527 C 120.284 113.314,119.546 112.893,119.052 112.592 C 118.558 112.291,117.307 111.564,116.273 110.977 C 115.238 110.390,114.392 109.818,114.392 109.707 C 114.392 109.595,114.117 109.435,113.780 109.350 C 113.251 109.218,111.830 108.397,111.056 107.777 C 110.920 107.668,110.448 107.431,110.006 107.249 C 109.565 107.068,109.203 106.823,109.203 106.706 C 109.203 106.588,108.842 106.328,108.400 106.127 C 107.959 105.926,107.153 105.480,106.609 105.137 C 106.065 104.794,105.232 104.317,104.756 104.078 C 104.280 103.840,103.780 103.522,103.644 103.374 C 103.508 103.225,103.036 102.961,102.594 102.788 C 102.153 102.614,101.791 102.382,101.791 102.272 C 101.791 102.162,101.557 101.997,101.272 101.907 C 100.986 101.816,100.359 101.475,99.878 101.149 C 98.979 100.539,98.112 100.427,97.184 100.801 M184.338 155.248 C 184.138 155.490,184.076 158.082,184.123 164.328 L 184.188 173.070 247.190 173.140 C 281.841 173.178,310.553 173.145,310.994 173.067 L 311.797 172.924 311.797 164.158 L 311.797 155.392 311.164 155.151 C 310.066 154.734,184.686 154.830,184.338 155.248 " stroke="none" fill="#050505" fill-rule="evenodd"></path><path id="path1" d="M0.000 123.533 L 0.000 247.066 200.000 247.066 L 400.000 247.066 400.000 123.533 L 400.000 0.000 200.000 0.000 L 0.000 0.000 0.000 123.533 M392.774 125.618 C 392.823 217.550,392.773 240.776,392.527 240.933 C 392.170 241.159,7.157 241.213,6.567 240.987 C 6.159 240.830,5.934 10.949,6.342 10.541 C 6.432 10.451,93.403 10.404,199.609 10.438 L 392.712 10.500 392.774 125.618 M39.036 39.111 C 39.036 45.564,39.114 47.909,39.333 48.128 C 39.557 48.353,43.352 48.425,54.898 48.425 L 70.167 48.425 70.167 39.407 L 70.167 30.389 54.602 30.389 L 39.036 30.389 39.036 39.111 M103.768 39.111 C 103.768 45.564,103.845 47.909,104.064 48.128 C 104.497 48.561,359.247 48.561,359.679 48.128 C 359.898 47.909,359.975 45.564,359.975 39.111 L 359.975 30.389 231.872 30.389 L 103.768 30.389 103.768 39.111 M39.592 68.859 L 39.036 68.966 39.036 144.891 L 39.036 220.815 39.809 220.970 C 40.233 221.055,112.097 221.124,199.506 221.124 C 286.915 221.124,358.779 221.055,359.203 220.970 L 359.975 220.815 359.975 144.904 L 359.975 68.993 359.203 68.839 C 358.349 68.668,40.480 68.688,39.592 68.859 M99.501 99.815 C 99.734 100.086,100.105 100.309,100.325 100.309 C 100.546 100.309,100.928 100.531,101.174 100.803 C 101.420 101.075,101.820 101.297,102.063 101.297 C 102.306 101.297,102.655 101.512,102.838 101.774 C 103.022 102.036,103.465 102.324,103.822 102.414 C 104.180 102.503,104.665 102.789,104.900 103.049 C 105.135 103.308,105.518 103.521,105.752 103.521 C 105.986 103.521,106.322 103.694,106.497 103.906 C 106.673 104.117,107.187 104.445,107.639 104.634 C 108.092 104.823,108.462 105.095,108.462 105.238 C 108.462 105.380,108.676 105.497,108.937 105.497 C 109.199 105.497,109.743 105.775,110.146 106.115 C 110.550 106.455,111.042 106.733,111.239 106.733 C 111.436 106.733,111.799 106.955,112.044 107.227 C 112.290 107.498,112.642 107.721,112.826 107.721 C 113.010 107.721,113.351 107.943,113.584 108.215 C 113.817 108.487,114.196 108.709,114.428 108.709 C 114.659 108.709,115.162 108.972,115.546 109.293 C 115.930 109.614,116.495 109.955,116.800 110.051 C 117.106 110.146,117.356 110.320,117.356 110.436 C 117.356 110.552,117.746 110.776,118.221 110.933 C 118.697 111.090,119.086 111.322,119.086 111.448 C 119.086 111.574,119.522 111.852,120.055 112.066 C 120.588 112.279,121.085 112.612,121.159 112.805 C 121.233 112.998,121.475 113.156,121.696 113.156 C 121.917 113.156,122.393 113.364,122.754 113.618 C 123.114 113.872,123.660 114.157,123.965 114.252 C 124.271 114.347,124.521 114.584,124.521 114.779 C 124.521 114.974,124.735 115.133,124.996 115.133 C 125.258 115.133,125.802 115.411,126.206 115.750 C 126.609 116.090,127.101 116.368,127.298 116.368 C 127.495 116.368,127.858 116.590,128.104 116.862 C 128.350 117.134,128.755 117.356,129.005 117.356 C 129.254 117.356,129.597 117.579,129.767 117.851 C 129.937 118.122,130.256 118.345,130.477 118.345 C 130.698 118.345,131.161 118.567,131.507 118.839 C 131.852 119.111,132.248 119.333,132.386 119.333 C 132.524 119.333,132.951 119.587,133.335 119.898 C 133.719 120.209,134.339 120.596,134.713 120.758 C 135.086 120.920,135.392 121.165,135.392 121.304 C 135.392 121.443,135.615 121.557,135.886 121.557 C 136.158 121.557,136.578 121.751,136.820 121.989 C 137.062 122.227,137.646 122.621,138.118 122.866 C 140.131 123.911,140.467 124.119,140.655 124.435 C 140.763 124.618,141.069 124.768,141.334 124.768 C 141.599 124.768,142.014 124.963,142.256 125.201 C 142.498 125.439,143.109 125.826,143.615 126.061 C 144.120 126.297,144.534 126.603,144.534 126.741 C 144.534 126.879,144.752 126.992,145.018 126.992 C 145.285 126.992,145.702 127.205,145.945 127.466 C 146.188 127.727,146.692 128.017,147.066 128.111 C 147.440 128.204,147.746 128.375,147.746 128.490 C 147.746 128.604,148.246 128.920,148.857 129.190 C 149.469 129.461,149.969 129.799,149.969 129.943 C 149.969 130.086,150.174 130.204,150.425 130.204 C 150.676 130.204,151.076 130.420,151.315 130.684 C 151.554 130.948,152.072 131.235,152.465 131.321 C 152.859 131.408,153.181 131.582,153.181 131.708 C 153.181 131.834,153.617 132.112,154.150 132.325 C 154.683 132.538,155.180 132.871,155.254 133.064 C 155.328 133.258,155.587 133.416,155.829 133.417 C 156.310 133.418,158.122 134.965,158.122 135.374 C 158.122 135.514,157.817 135.822,157.443 136.060 C 157.069 136.298,156.675 136.634,156.566 136.807 C 156.457 136.980,156.216 137.122,156.029 137.122 C 155.842 137.122,155.359 137.400,154.955 137.739 C 154.552 138.079,154.060 138.357,153.863 138.357 C 153.666 138.357,153.309 138.573,153.070 138.837 C 152.831 139.101,152.323 139.386,151.941 139.470 C 151.558 139.554,151.184 139.783,151.109 139.978 C 151.034 140.174,150.820 140.334,150.633 140.334 C 150.446 140.334,149.970 140.611,149.575 140.951 C 149.180 141.290,148.676 141.568,148.455 141.569 C 148.234 141.569,147.909 141.742,147.734 141.954 C 147.558 142.165,147.072 142.501,146.653 142.699 C 145.592 143.202,144.489 143.859,144.093 144.224 C 143.909 144.394,143.488 144.601,143.158 144.684 C 142.827 144.766,142.557 144.937,142.557 145.063 C 142.557 145.189,142.057 145.507,141.445 145.769 C 140.834 146.031,140.334 146.352,140.334 146.482 C 140.334 146.612,140.000 146.791,139.592 146.881 C 139.185 146.970,138.851 147.132,138.851 147.241 C 138.851 147.350,138.495 147.586,138.059 147.767 C 137.623 147.947,137.067 148.294,136.823 148.538 C 136.580 148.782,136.218 148.981,136.020 148.981 C 135.821 148.981,135.460 149.189,135.217 149.444 C 134.973 149.699,134.497 149.991,134.157 150.093 C 133.817 150.194,133.340 150.486,133.097 150.741 C 132.854 150.996,132.510 151.204,132.333 151.204 C 132.155 151.204,131.814 151.421,131.575 151.685 C 131.336 151.949,130.828 152.233,130.446 152.317 C 130.064 152.401,129.694 152.619,129.623 152.802 C 129.553 152.985,129.155 153.209,128.738 153.301 C 128.321 153.392,127.980 153.575,127.980 153.707 C 127.980 153.839,127.610 154.102,127.158 154.291 C 126.705 154.480,126.191 154.808,126.016 155.020 C 125.840 155.231,125.558 155.405,125.389 155.405 C 125.220 155.405,124.808 155.620,124.473 155.883 C 124.139 156.147,123.568 156.437,123.205 156.528 C 122.842 156.619,122.545 156.798,122.545 156.926 C 122.545 157.054,122.175 157.314,121.722 157.503 C 121.270 157.692,120.756 158.020,120.580 158.232 C 120.404 158.443,120.058 158.616,119.811 158.616 C 119.563 158.616,119.216 158.823,119.038 159.075 C 118.861 159.327,118.459 159.615,118.145 159.714 C 117.831 159.813,116.942 160.306,116.168 160.809 C 115.395 161.313,114.456 161.857,114.083 162.018 C 113.709 162.180,113.403 162.420,113.403 162.553 C 113.403 162.686,113.014 162.867,112.539 162.956 C 112.063 163.046,111.674 163.249,111.674 163.408 C 111.674 163.566,111.368 163.837,110.994 164.009 C 109.516 164.690,108.329 165.387,108.152 165.681 C 108.049 165.851,107.633 166.063,107.227 166.152 C 106.821 166.241,106.404 166.447,106.302 166.609 C 106.199 166.771,105.837 167.048,105.497 167.224 C 104.061 167.968,103.214 168.476,102.824 168.828 C 102.596 169.033,102.103 169.278,101.729 169.371 C 101.356 169.465,101.050 169.646,101.050 169.774 C 101.050 169.902,100.669 170.166,100.202 170.361 C 99.736 170.556,99.285 170.828,99.199 170.966 C 99.000 171.289,97.344 171.295,97.344 170.973 C 97.344 170.839,96.983 170.555,96.541 170.342 C 95.263 169.726,94.064 169.033,93.907 168.819 C 93.827 168.711,93.372 168.426,92.897 168.185 C 92.421 167.944,91.587 167.476,91.044 167.144 C 90.500 166.812,89.704 166.372,89.275 166.167 C 88.846 165.962,88.457 165.707,88.411 165.602 C 88.364 165.497,87.891 165.188,87.358 164.917 C 85.141 163.784,84.744 163.543,84.744 163.328 C 84.744 163.204,84.410 163.030,84.002 162.940 C 83.595 162.851,83.261 162.680,83.261 162.561 C 83.261 162.443,82.761 162.124,82.149 161.854 C 81.538 161.583,81.038 161.245,81.038 161.101 C 81.038 160.957,80.836 160.840,80.590 160.840 C 80.344 160.840,79.919 160.631,79.645 160.376 C 79.371 160.121,78.894 159.832,78.585 159.734 C 78.277 159.636,77.813 159.345,77.554 159.086 C 77.296 158.828,76.860 158.616,76.585 158.616 C 75.220 158.616,75.386 156.209,76.779 155.810 C 77.219 155.683,77.579 155.487,77.579 155.372 C 77.579 155.258,77.940 154.992,78.382 154.782 C 78.823 154.571,79.629 154.127,80.173 153.795 C 80.716 153.463,81.550 152.994,82.026 152.754 C 82.502 152.513,82.956 152.228,83.036 152.119 C 83.174 151.932,83.964 151.463,85.608 150.591 C 86.016 150.375,86.850 149.869,87.461 149.468 C 88.073 149.066,88.879 148.615,89.253 148.465 C 89.626 148.314,89.932 148.103,89.932 147.995 C 89.932 147.887,90.367 147.625,90.899 147.412 C 91.431 147.199,91.939 146.908,92.028 146.764 C 92.117 146.620,92.571 146.343,93.037 146.148 C 93.504 145.954,93.885 145.686,93.885 145.554 C 93.885 145.422,94.219 145.241,94.626 145.151 C 95.034 145.062,95.368 144.893,95.368 144.777 C 95.368 144.661,95.757 144.425,96.232 144.253 C 96.708 144.081,97.097 143.847,97.097 143.734 C 97.097 143.621,97.597 143.313,98.209 143.051 C 98.820 142.789,99.321 142.472,99.321 142.346 C 99.321 142.220,99.618 142.042,99.981 141.951 C 100.343 141.860,100.914 141.570,101.249 141.306 C 101.584 141.043,102.010 140.828,102.195 140.828 C 102.381 140.828,102.532 140.715,102.532 140.577 C 102.532 140.439,102.949 140.133,103.459 139.897 C 103.968 139.662,104.474 139.330,104.583 139.160 C 104.692 138.990,104.920 138.851,105.091 138.851 C 105.262 138.851,105.778 138.573,106.238 138.233 C 106.699 137.894,107.264 137.616,107.495 137.616 C 107.726 137.616,107.975 137.459,108.049 137.267 C 108.122 137.075,108.579 136.775,109.064 136.600 C 109.548 136.425,109.944 136.190,109.944 136.078 C 109.944 135.966,110.250 135.758,110.624 135.616 C 111.271 135.370,111.280 135.345,110.809 135.097 C 110.537 134.954,110.204 134.712,110.068 134.559 C 109.932 134.406,109.432 134.085,108.956 133.845 C 108.481 133.606,107.758 133.189,107.350 132.918 C 106.943 132.648,106.255 132.262,105.823 132.060 C 105.391 131.859,104.966 131.579,104.880 131.439 C 104.793 131.299,104.317 131.015,103.821 130.808 C 103.326 130.601,102.861 130.342,102.788 130.232 C 102.649 130.023,101.729 129.498,100.360 128.846 C 99.912 128.633,99.483 128.295,99.407 128.096 C 99.330 127.896,99.013 127.733,98.702 127.733 C 98.391 127.733,97.875 127.457,97.555 127.120 C 97.235 126.782,96.804 126.504,96.596 126.502 C 96.388 126.500,96.028 126.275,95.795 126.004 C 95.563 125.732,95.150 125.510,94.878 125.510 C 94.606 125.510,94.245 125.287,94.075 125.015 C 93.905 124.744,93.579 124.521,93.351 124.521 C 93.122 124.521,92.604 124.243,92.201 123.904 C 91.797 123.564,91.294 123.286,91.082 123.286 C 90.871 123.286,90.609 123.131,90.500 122.942 C 90.392 122.753,89.886 122.425,89.376 122.213 C 88.867 122.002,88.450 121.712,88.450 121.569 C 88.450 121.426,88.236 121.309,87.974 121.309 C 87.713 121.309,87.169 121.032,86.765 120.692 C 86.362 120.352,85.849 120.074,85.627 120.074 C 85.404 120.074,85.160 119.913,85.085 119.715 C 85.009 119.518,84.578 119.235,84.126 119.086 C 83.674 118.937,83.243 118.653,83.167 118.456 C 83.092 118.259,82.812 118.098,82.547 118.098 C 82.281 118.098,81.749 117.847,81.365 117.542 C 80.625 116.954,79.906 116.514,78.691 115.907 C 78.283 115.703,77.838 115.403,77.702 115.241 C 77.566 115.078,77.146 114.873,76.767 114.785 C 75.354 114.456,75.192 112.561,76.529 112.004 C 77.038 111.792,77.511 111.537,77.579 111.437 C 77.697 111.263,78.186 110.982,80.042 110.019 C 80.513 109.774,81.097 109.379,81.339 109.141 C 81.581 108.904,81.928 108.709,82.111 108.709 C 82.294 108.709,82.645 108.487,82.891 108.215 C 83.137 107.943,83.529 107.721,83.763 107.721 C 83.998 107.721,84.333 107.548,84.508 107.336 C 84.684 107.124,85.170 106.785,85.589 106.581 C 86.910 105.940,87.975 105.309,88.424 104.902 C 88.664 104.686,89.020 104.509,89.217 104.509 C 89.414 104.509,89.766 104.287,89.998 104.015 C 90.231 103.743,90.601 103.521,90.820 103.521 C 91.040 103.521,91.550 103.243,91.954 102.903 C 92.357 102.563,92.890 102.285,93.136 102.285 C 93.383 102.285,93.651 102.113,93.732 101.903 C 93.813 101.693,94.214 101.404,94.623 101.261 C 95.033 101.118,95.368 100.910,95.368 100.798 C 95.368 100.686,95.747 100.469,96.210 100.316 C 96.674 100.163,97.115 99.876,97.191 99.679 C 97.403 99.127,98.992 99.220,99.501 99.815 M312.341 154.120 C 312.593 154.372,312.662 156.479,312.662 163.962 L 312.662 173.484 312.077 173.958 C 311.503 174.422,310.264 174.430,247.678 174.368 L 183.865 174.305 183.223 173.613 L 182.582 172.921 182.582 164.278 C 182.582 154.903,182.683 154.077,183.858 153.851 C 185.457 153.543,312.029 153.808,312.341 154.120 " stroke="none" fill="#fbfbfb" fill-rule="evenodd"></path><path id="path2" d="M6.342 10.541 C 6.251 10.632,6.177 10.821,6.177 10.961 C 6.177 11.114,6.296 11.098,6.473 10.920 C 6.917 10.477,392.099 10.489,392.569 10.933 C 392.834 11.182,392.875 11.170,392.784 10.871 C 392.664 10.481,6.731 10.151,6.342 10.541 M38.903 30.450 C 38.837 30.622,38.812 34.819,38.848 39.779 L 38.913 48.796 54.666 48.859 L 70.420 48.923 70.355 39.594 L 70.290 30.266 54.656 30.202 C 42.252 30.152,38.998 30.203,38.903 30.450 M103.335 30.306 C 102.935 30.467,102.885 47.698,103.282 48.441 C 103.535 48.913,105.244 48.919,231.752 48.919 L 359.966 48.919 360.101 48.363 C 360.176 48.057,360.206 43.860,360.168 39.036 L 360.099 30.266 231.872 30.223 C 161.347 30.200,103.505 30.237,103.335 30.306 M70.167 39.407 L 70.167 48.425 54.898 48.425 C 43.352 48.425,39.557 48.353,39.333 48.128 C 39.114 47.909,39.036 45.564,39.036 39.111 L 39.036 30.389 54.602 30.389 L 70.167 30.389 70.167 39.407 M359.975 39.111 C 359.975 45.564,359.898 47.909,359.679 48.128 C 359.247 48.561,104.497 48.561,104.064 48.128 C 103.845 47.909,103.768 45.564,103.768 39.111 L 103.768 30.389 231.872 30.389 L 359.975 30.389 359.975 39.111 M39.345 68.612 L 38.789 68.719 38.789 144.895 C 38.789 214.130,38.825 221.085,39.180 221.221 C 39.998 221.535,359.611 221.389,359.926 221.075 C 360.155 220.845,360.222 203.576,360.222 144.849 L 360.222 68.919 359.589 68.678 C 358.968 68.442,40.568 68.376,39.345 68.612 M359.203 68.839 L 359.975 68.993 359.975 144.904 L 359.975 220.815 359.203 220.970 C 358.779 221.055,286.915 221.124,199.506 221.124 C 112.097 221.124,40.233 221.055,39.809 220.970 L 39.036 220.815 39.036 144.891 L 39.036 68.966 39.592 68.859 C 40.480 68.688,358.349 68.668,359.203 68.839 M97.191 99.679 C 97.115 99.876,96.674 100.163,96.210 100.316 C 95.747 100.469,95.368 100.686,95.368 100.798 C 95.368 100.910,95.033 101.118,94.623 101.261 C 94.214 101.404,93.813 101.693,93.732 101.903 C 93.651 102.113,93.383 102.285,93.136 102.285 C 92.890 102.285,92.357 102.563,91.954 102.903 C 91.550 103.243,91.040 103.521,90.820 103.521 C 90.601 103.521,90.231 103.743,89.998 104.015 C 89.766 104.287,89.414 104.509,89.217 104.509 C 89.020 104.509,88.664 104.686,88.424 104.902 C 87.975 105.309,86.910 105.940,85.589 106.581 C 85.170 106.785,84.684 107.124,84.508 107.336 C 84.333 107.548,83.998 107.721,83.763 107.721 C 83.529 107.721,83.137 107.943,82.891 108.215 C 82.645 108.487,82.294 108.709,82.111 108.709 C 81.928 108.709,81.581 108.904,81.339 109.141 C 81.097 109.379,80.513 109.774,80.042 110.019 C 78.186 110.982,77.697 111.263,77.579 111.437 C 77.511 111.537,77.038 111.792,76.529 112.004 C 75.192 112.561,75.354 114.456,76.767 114.785 C 77.146 114.873,77.566 115.078,77.702 115.241 C 77.838 115.403,78.283 115.703,78.691 115.907 C 79.906 116.514,80.625 116.954,81.365 117.542 C 81.749 117.847,82.281 118.098,82.547 118.098 C 82.812 118.098,83.092 118.259,83.167 118.456 C 83.243 118.653,83.674 118.937,84.126 119.086 C 84.578 119.235,85.009 119.518,85.085 119.715 C 85.160 119.913,85.404 120.074,85.627 120.074 C 85.849 120.074,86.362 120.352,86.765 120.692 C 87.169 121.032,87.713 121.309,87.974 121.309 C 88.236 121.309,88.450 121.426,88.450 121.569 C 88.450 121.712,88.867 122.002,89.376 122.213 C 89.886 122.425,90.392 122.753,90.500 122.942 C 90.609 123.131,90.871 123.286,91.082 123.286 C 91.294 123.286,91.797 123.564,92.201 123.904 C 92.604 124.243,93.122 124.521,93.351 124.521 C 93.579 124.521,93.905 124.744,94.075 125.015 C 94.245 125.287,94.606 125.510,94.878 125.510 C 95.150 125.510,95.563 125.732,95.795 126.004 C 96.028 126.275,96.388 126.500,96.596 126.502 C 96.804 126.504,97.235 126.782,97.555 127.120 C 97.875 127.457,98.391 127.733,98.702 127.733 C 99.013 127.733,99.330 127.896,99.407 128.096 C 99.483 128.295,99.912 128.633,100.360 128.846 C 101.729 129.498,102.649 130.023,102.788 130.232 C 102.861 130.342,103.326 130.601,103.821 130.808 C 104.317 131.015,104.793 131.299,104.880 131.439 C 104.966 131.579,105.391 131.859,105.823 132.060 C 106.255 132.262,106.943 132.648,107.350 132.918 C 107.758 133.189,108.481 133.606,108.956 133.845 C 109.432 134.085,109.932 134.406,110.068 134.559 C 110.204 134.712,110.537 134.954,110.809 135.097 C 111.280 135.345,111.271 135.370,110.624 135.616 C 110.250 135.758,109.944 135.966,109.944 136.078 C 109.944 136.190,109.548 136.425,109.064 136.600 C 108.579 136.775,108.122 137.075,108.049 137.267 C 107.975 137.459,107.726 137.616,107.495 137.616 C 107.264 137.616,106.699 137.894,106.238 138.233 C 105.778 138.573,105.262 138.851,105.091 138.851 C 104.920 138.851,104.692 138.990,104.583 139.160 C 104.474 139.330,103.968 139.662,103.459 139.897 C 102.949 140.133,102.532 140.439,102.532 140.577 C 102.532 140.715,102.381 140.828,102.195 140.828 C 102.010 140.828,101.584 141.043,101.249 141.306 C 100.914 141.570,100.343 141.860,99.981 141.951 C 99.618 142.042,99.321 142.220,99.321 142.346 C 99.321 142.472,98.820 142.789,98.209 143.051 C 97.597 143.313,97.097 143.621,97.097 143.734 C 97.097 143.847,96.708 144.081,96.232 144.253 C 95.757 144.425,95.368 144.661,95.368 144.777 C 95.368 144.893,95.034 145.062,94.626 145.151 C 94.219 145.241,93.885 145.422,93.885 145.554 C 93.885 145.686,93.504 145.954,93.037 146.148 C 92.571 146.343,92.117 146.620,92.028 146.764 C 91.939 146.908,91.431 147.199,90.899 147.412 C 90.367 147.625,89.932 147.887,89.932 147.995 C 89.932 148.103,89.626 148.314,89.253 148.465 C 88.879 148.615,88.073 149.066,87.461 149.468 C 86.850 149.869,86.016 150.375,85.608 150.591 C 83.964 151.463,83.174 151.932,83.036 152.119 C 82.956 152.228,82.502 152.513,82.026 152.754 C 81.550 152.994,80.716 153.463,80.173 153.795 C 79.629 154.127,78.823 154.571,78.382 154.782 C 77.940 154.992,77.579 155.258,77.579 155.372 C 77.579 155.487,77.219 155.683,76.779 155.810 C 75.386 156.209,75.220 158.616,76.585 158.616 C 76.860 158.616,77.296 158.828,77.554 159.086 C 77.813 159.345,78.277 159.636,78.585 159.734 C 78.894 159.832,79.371 160.121,79.645 160.376 C 79.919 160.631,80.344 160.840,80.590 160.840 C 80.836 160.840,81.038 160.957,81.038 161.101 C 81.038 161.245,81.538 161.583,82.149 161.854 C 82.761 162.124,83.261 162.443,83.261 162.561 C 83.261 162.680,83.595 162.851,84.002 162.940 C 84.410 163.030,84.744 163.204,84.744 163.328 C 84.744 163.543,85.141 163.784,87.358 164.917 C 87.891 165.188,88.364 165.497,88.411 165.602 C 88.457 165.707,88.846 165.962,89.275 166.167 C 89.704 166.372,90.500 166.812,91.044 167.144 C 91.587 167.476,92.421 167.944,92.897 168.185 C 93.372 168.426,93.827 168.711,93.907 168.819 C 94.064 169.033,95.263 169.726,96.541 170.342 C 96.983 170.555,97.344 170.839,97.344 170.973 C 97.344 171.295,99.000 171.289,99.199 170.966 C 99.285 170.828,99.736 170.556,100.202 170.361 C 100.669 170.166,101.050 169.902,101.050 169.774 C 101.050 169.646,101.356 169.465,101.729 169.371 C 102.103 169.278,102.596 169.033,102.824 168.828 C 103.214 168.476,104.061 167.968,105.497 167.224 C 105.837 167.048,106.199 166.771,106.302 166.609 C 106.404 166.447,106.821 166.241,107.227 166.152 C 107.633 166.063,108.049 165.851,108.152 165.681 C 108.329 165.387,109.516 164.690,110.994 164.009 C 111.368 163.837,111.674 163.566,111.674 163.408 C 111.674 163.249,112.063 163.046,112.539 162.956 C 113.014 162.867,113.403 162.686,113.403 162.553 C 113.403 162.420,113.709 162.180,114.083 162.018 C 114.456 161.857,115.395 161.313,116.168 160.809 C 116.942 160.306,117.831 159.813,118.145 159.714 C 118.459 159.615,118.861 159.327,119.038 159.075 C 119.216 158.823,119.563 158.616,119.811 158.616 C 120.058 158.616,120.404 158.443,120.580 158.232 C 120.756 158.020,121.270 157.692,121.722 157.503 C 122.175 157.314,122.545 157.054,122.545 156.926 C 122.545 156.798,122.842 156.619,123.205 156.528 C 123.568 156.437,124.139 156.147,124.473 155.883 C 124.808 155.620,125.220 155.405,125.389 155.405 C 125.558 155.405,125.840 155.231,126.016 155.020 C 126.191 154.808,126.705 154.480,127.158 154.291 C 127.610 154.102,127.980 153.839,127.980 153.707 C 127.980 153.575,128.321 153.392,128.738 153.301 C 129.155 153.209,129.553 152.985,129.623 152.802 C 129.694 152.619,130.064 152.401,130.446 152.317 C 130.828 152.233,131.336 151.949,131.575 151.685 C 131.814 151.421,132.155 151.204,132.333 151.204 C 132.510 151.204,132.854 150.996,133.097 150.741 C 133.340 150.486,133.817 150.194,134.157 150.093 C 134.497 149.991,134.973 149.699,135.217 149.444 C 135.460 149.189,135.821 148.981,136.020 148.981 C 136.218 148.981,136.580 148.782,136.823 148.538 C 137.067 148.294,137.623 147.947,138.059 147.767 C 138.495 147.586,138.851 147.350,138.851 147.241 C 138.851 147.132,139.185 146.970,139.592 146.881 C 140.000 146.791,140.334 146.612,140.334 146.482 C 140.334 146.352,140.834 146.031,141.445 145.769 C 142.057 145.507,142.557 145.189,142.557 145.063 C 142.557 144.937,142.827 144.766,143.158 144.684 C 143.488 144.601,143.909 144.394,144.093 144.224 C 144.489 143.859,145.592 143.202,146.653 142.699 C 147.072 142.501,147.558 142.165,147.734 141.954 C 147.909 141.742,148.234 141.569,148.455 141.569 C 148.676 141.568,149.180 141.290,149.575 140.951 C 149.970 140.611,150.446 140.334,150.633 140.334 C 150.820 140.334,151.034 140.174,151.109 139.978 C 151.184 139.783,151.558 139.554,151.941 139.470 C 152.323 139.386,152.831 139.101,153.070 138.837 C 153.309 138.573,153.666 138.357,153.863 138.357 C 154.060 138.357,154.552 138.079,154.955 137.739 C 155.359 137.400,155.842 137.122,156.029 137.122 C 156.216 137.122,156.457 136.980,156.566 136.807 C 156.675 136.634,157.069 136.298,157.443 136.060 C 157.817 135.822,158.122 135.514,158.122 135.374 C 158.122 134.965,156.310 133.418,155.829 133.417 C 155.587 133.416,155.328 133.258,155.254 133.064 C 155.180 132.871,154.683 132.538,154.150 132.325 C 153.617 132.112,153.181 131.834,153.181 131.708 C 153.181 131.582,152.859 131.408,152.465 131.321 C 152.072 131.235,151.554 130.948,151.315 130.684 C 151.076 130.420,150.676 130.204,150.425 130.204 C 150.174 130.204,149.969 130.086,149.969 129.943 C 149.969 129.799,149.469 129.461,148.857 129.190 C 148.246 128.920,147.746 128.604,147.746 128.490 C 147.746 128.375,147.440 128.204,147.066 128.111 C 146.692 128.017,146.188 127.727,145.945 127.466 C 145.702 127.205,145.285 126.992,145.018 126.992 C 144.752 126.992,144.534 126.879,144.534 126.741 C 144.534 126.603,144.120 126.297,143.615 126.061 C 143.109 125.826,142.498 125.439,142.256 125.201 C 142.014 124.963,141.599 124.768,141.334 124.768 C 141.069 124.768,140.763 124.618,140.655 124.435 C 140.467 124.119,140.131 123.911,138.118 122.866 C 137.646 122.621,137.062 122.227,136.820 121.989 C 136.578 121.751,136.158 121.557,135.886 121.557 C 135.615 121.557,135.392 121.443,135.392 121.304 C 135.392 121.165,135.086 120.920,134.713 120.758 C 134.339 120.596,133.719 120.209,133.335 119.898 C 132.951 119.587,132.524 119.333,132.386 119.333 C 132.248 119.333,131.852 119.111,131.507 118.839 C 131.161 118.567,130.698 118.345,130.477 118.345 C 130.256 118.345,129.937 118.122,129.767 117.851 C 129.597 117.579,129.254 117.356,129.005 117.356 C 128.755 117.356,128.350 117.134,128.104 116.862 C 127.858 116.590,127.495 116.368,127.298 116.368 C 127.101 116.368,126.609 116.090,126.206 115.750 C 125.802 115.411,125.258 115.133,124.996 115.133 C 124.735 115.133,124.521 114.974,124.521 114.779 C 124.521 114.584,124.271 114.347,123.965 114.252 C 123.660 114.157,123.114 113.872,122.754 113.618 C 122.393 113.364,121.917 113.156,121.696 113.156 C 121.475 113.156,121.233 112.998,121.159 112.805 C 121.085 112.612,120.588 112.279,120.055 112.066 C 119.522 111.852,119.086 111.574,119.086 111.448 C 119.086 111.322,118.697 111.090,118.221 110.933 C 117.746 110.776,117.356 110.552,117.356 110.436 C 117.356 110.320,117.106 110.146,116.800 110.051 C 116.495 109.955,115.930 109.614,115.546 109.293 C 115.162 108.972,114.659 108.709,114.428 108.709 C 114.196 108.709,113.817 108.487,113.584 108.215 C 113.351 107.943,113.010 107.721,112.826 107.721 C 112.642 107.721,112.290 107.498,112.044 107.227 C 111.799 106.955,111.436 106.733,111.239 106.733 C 111.042 106.733,110.550 106.455,110.146 106.115 C 109.743 105.775,109.199 105.497,108.937 105.497 C 108.676 105.497,108.462 105.380,108.462 105.238 C 108.462 105.095,108.092 104.823,107.639 104.634 C 107.187 104.445,106.673 104.117,106.497 103.906 C 106.322 103.694,105.986 103.521,105.752 103.521 C 105.518 103.521,105.135 103.308,104.900 103.049 C 104.665 102.789,104.180 102.503,103.822 102.414 C 103.465 102.324,103.022 102.036,102.838 101.774 C 102.655 101.512,102.306 101.297,102.063 101.297 C 101.820 101.297,101.420 101.075,101.174 100.803 C 100.928 100.531,100.546 100.309,100.325 100.309 C 100.105 100.309,99.734 100.086,99.501 99.815 C 98.992 99.220,97.403 99.127,97.191 99.679 M99.497 100.247 C 100.012 100.485,100.470 100.766,100.517 100.871 C 100.563 100.976,100.952 101.222,101.381 101.418 C 101.811 101.614,102.607 102.053,103.150 102.394 C 103.694 102.736,104.527 103.244,105.003 103.524 C 105.844 104.019,106.940 104.673,108.709 105.737 C 111.061 107.151,111.607 107.469,112.292 107.828 C 112.699 108.042,113.533 108.545,114.145 108.948 C 114.756 109.350,115.590 109.854,115.998 110.067 C 116.405 110.281,117.183 110.726,117.727 111.056 C 118.271 111.386,119.104 111.889,119.580 112.175 C 120.056 112.461,120.889 112.965,121.433 113.294 C 121.977 113.624,122.775 114.060,123.207 114.263 C 123.640 114.465,124.064 114.746,124.151 114.886 C 124.237 115.026,124.662 115.311,125.094 115.520 C 126.364 116.134,127.555 116.824,127.711 117.036 C 127.791 117.144,128.246 117.427,128.721 117.664 C 129.197 117.901,129.802 118.234,130.066 118.405 C 131.202 119.140,133.345 120.460,133.966 120.808 C 134.983 121.377,138.315 123.336,139.322 123.957 C 139.810 124.258,140.544 124.679,140.951 124.892 C 141.359 125.106,142.193 125.610,142.804 126.012 C 143.416 126.414,144.250 126.915,144.657 127.124 C 145.065 127.333,145.899 127.830,146.510 128.227 C 147.122 128.625,147.956 129.127,148.363 129.343 C 150.008 130.215,150.798 130.685,150.936 130.872 C 151.016 130.980,151.470 131.266,151.946 131.507 C 153.683 132.387,156.670 134.261,157.299 134.865 C 157.908 135.450,157.787 135.577,155.158 137.122 C 154.682 137.401,153.515 138.125,152.563 138.731 C 151.612 139.337,150.445 140.014,149.969 140.234 C 149.494 140.455,149.049 140.712,148.981 140.806 C 148.913 140.899,148.301 141.302,147.622 141.701 C 146.943 142.101,146.164 142.565,145.893 142.733 C 145.621 142.901,145.065 143.212,144.657 143.424 C 144.250 143.636,143.305 144.198,142.557 144.671 C 141.810 145.145,140.976 145.648,140.704 145.787 C 140.432 145.927,139.765 146.310,139.222 146.637 C 138.678 146.965,137.844 147.467,137.369 147.753 C 136.893 148.039,136.059 148.542,135.516 148.872 C 134.972 149.202,134.185 149.633,133.767 149.830 C 133.348 150.026,132.862 150.361,132.686 150.573 C 132.511 150.784,132.248 150.957,132.102 150.957 C 131.861 150.957,131.010 151.469,129.164 152.725 C 128.796 152.976,128.340 153.181,128.152 153.181 C 127.964 153.181,127.609 153.403,127.363 153.675 C 127.117 153.947,126.806 154.169,126.673 154.169 C 126.539 154.169,125.695 154.653,124.796 155.245 C 123.898 155.837,122.912 156.400,122.607 156.497 C 122.301 156.594,122.051 156.769,122.051 156.887 C 122.051 157.005,121.807 157.178,121.510 157.272 C 121.047 157.419,120.278 157.869,117.220 159.782 C 116.955 159.947,115.960 160.533,115.009 161.083 C 114.058 161.633,112.835 162.357,112.292 162.691 C 111.748 163.025,110.914 163.528,110.439 163.808 C 109.963 164.088,109.129 164.587,108.586 164.917 C 108.042 165.247,107.264 165.692,106.856 165.905 C 106.448 166.119,105.615 166.618,105.003 167.013 C 104.392 167.409,103.535 167.916,103.100 168.139 C 102.664 168.362,102.178 168.701,102.019 168.892 C 101.861 169.084,101.593 169.240,101.424 169.240 C 101.255 169.240,100.850 169.450,100.524 169.707 C 98.873 171.005,97.394 170.747,94.211 168.604 C 93.072 167.836,92.573 167.546,91.662 167.119 C 91.186 166.896,90.741 166.638,90.673 166.546 C 90.537 166.359,89.358 165.654,86.445 164.013 C 86.121 163.831,85.669 163.532,85.440 163.350 C 85.047 163.036,84.332 162.614,82.644 161.701 C 82.236 161.481,81.458 161.034,80.914 160.709 C 80.371 160.383,79.537 159.888,79.061 159.608 C 76.182 157.913,76.220 157.944,76.220 157.223 C 76.220 156.660,76.416 156.412,77.208 155.972 C 78.507 155.250,79.700 154.546,80.914 153.784 C 81.458 153.443,82.245 153.007,82.663 152.816 C 83.082 152.625,83.568 152.295,83.744 152.083 C 83.919 151.872,84.208 151.699,84.386 151.699 C 84.563 151.699,84.875 151.532,85.078 151.329 C 85.281 151.126,85.706 150.848,86.022 150.712 C 86.338 150.576,87.303 150.019,88.166 149.476 C 89.029 148.932,89.827 148.487,89.939 148.487 C 90.052 148.487,90.291 148.340,90.470 148.162 C 90.776 147.858,93.140 146.432,94.942 145.465 C 95.380 145.230,95.905 144.926,96.109 144.790 C 97.376 143.944,98.287 143.377,98.826 143.099 C 99.166 142.924,99.889 142.512,100.432 142.184 C 100.976 141.856,101.810 141.357,102.285 141.075 C 103.566 140.316,105.779 138.989,107.844 137.742 C 108.388 137.414,108.999 137.066,109.203 136.968 C 109.407 136.871,110.048 136.470,110.627 136.078 L 111.679 135.365 110.909 134.717 C 110.185 134.108,109.643 133.772,107.844 132.819 C 107.437 132.603,106.603 132.097,105.991 131.695 C 105.380 131.293,104.546 130.792,104.138 130.582 C 103.731 130.372,102.952 129.931,102.409 129.601 C 101.865 129.271,101.032 128.767,100.556 128.482 C 100.080 128.196,99.246 127.690,98.703 127.358 C 98.159 127.026,97.409 126.617,97.035 126.448 C 96.662 126.280,96.356 126.057,96.356 125.953 C 96.356 125.849,95.994 125.599,95.553 125.398 C 95.111 125.197,94.305 124.753,93.762 124.412 C 93.218 124.071,92.384 123.563,91.909 123.283 C 91.433 123.003,90.634 122.527,90.132 122.227 C 89.631 121.926,88.373 121.180,87.338 120.568 C 86.302 119.957,85.045 119.210,84.544 118.910 C 84.042 118.609,83.243 118.132,82.767 117.851 C 82.292 117.569,81.458 117.068,80.914 116.738 C 80.371 116.408,79.592 115.962,79.185 115.746 C 75.828 113.966,75.308 113.105,77.023 112.164 C 77.532 111.884,78.360 111.409,78.861 111.109 C 81.115 109.758,83.593 108.303,84.300 107.918 C 84.724 107.686,85.136 107.406,85.216 107.295 C 85.296 107.184,85.639 106.959,85.979 106.795 C 86.319 106.631,87.041 106.215,87.585 105.871 C 88.128 105.526,89.046 105.018,89.623 104.742 C 90.201 104.465,90.673 104.157,90.673 104.057 C 90.673 103.958,90.979 103.738,91.353 103.570 C 91.726 103.402,92.477 102.993,93.020 102.661 C 98.236 99.474,98.009 99.559,99.497 100.247 M183.858 153.851 C 182.683 154.077,182.582 154.903,182.582 164.278 L 182.582 172.921 183.223 173.613 L 183.865 174.305 247.678 174.368 C 310.264 174.430,311.503 174.422,312.077 173.958 L 312.662 173.484 312.662 163.962 C 312.662 156.479,312.593 154.372,312.341 154.120 C 312.029 153.808,185.457 153.543,183.858 153.851 M312.181 155.026 C 312.730 156.341,312.707 172.350,312.154 173.138 L 311.769 173.687 247.917 173.687 L 184.064 173.687 183.561 173.184 C 182.809 172.432,182.909 155.530,183.670 154.689 L 184.141 154.169 247.982 154.169 L 311.823 154.169 312.181 155.026 M6.184 240.431 C 6.180 240.654,6.353 240.904,6.567 240.987 C 7.078 241.183,391.933 241.183,392.444 240.987 C 392.659 240.904,392.832 240.654,392.828 240.431 C 392.821 240.071,392.792 240.074,392.568 240.457 C 392.176 241.131,6.836 241.131,6.444 240.457 C 6.220 240.074,6.191 240.071,6.184 240.431 " stroke="none" fill="#bcbcbc" fill-rule="evenodd"></path><path id="path3" d="M6.454 10.958 C 6.249 11.205,6.192 41.346,6.238 125.782 L 6.301 240.272 6.362 125.744 C 6.410 37.065,6.491 11.150,6.720 10.920 C 6.883 10.757,6.952 10.624,6.874 10.624 C 6.796 10.624,6.606 10.774,6.454 10.958 M392.279 10.896 C 392.524 11.211,392.600 34.694,392.650 125.782 L 392.712 240.272 392.774 125.725 C 392.832 16.885,392.814 11.162,392.403 10.839 C 392.020 10.539,392.005 10.545,392.279 10.896 M38.839 30.191 C 38.617 30.413,38.557 32.731,38.599 39.395 L 38.657 48.301 38.785 39.284 L 38.913 30.266 54.602 30.266 L 70.290 30.266 70.418 39.531 L 70.546 48.796 70.604 39.642 C 70.647 32.786,70.586 30.414,70.364 30.191 C 69.936 29.763,39.267 29.763,38.839 30.191 M231.872 30.142 L 360.099 30.266 360.227 39.284 L 360.355 48.301 360.412 39.395 C 360.455 32.731,360.395 30.413,360.173 30.191 C 359.943 29.961,331.145 29.909,231.760 29.956 L 103.644 30.018 231.872 30.142 M102.892 30.452 C 102.826 30.623,102.804 34.598,102.841 39.285 L 102.910 47.807 102.968 39.119 C 103.013 32.444,103.098 30.401,103.335 30.306 C 103.577 30.208,103.576 30.177,103.328 30.162 C 103.154 30.151,102.957 30.282,102.892 30.452 M47.022 49.104 C 51.346 49.142,58.351 49.142,62.587 49.104 C 66.824 49.066,63.286 49.035,54.725 49.035 C 46.164 49.035,42.698 49.066,47.022 49.104 M167.963 49.104 C 203.203 49.139,260.794 49.139,295.944 49.104 C 331.093 49.070,302.261 49.042,231.872 49.042 C 161.482 49.042,132.724 49.070,167.963 49.104 M359.666 68.692 L 360.222 68.916 360.222 144.847 C 360.222 205.243,360.159 220.849,359.914 221.125 C 359.651 221.419,359.669 221.422,360.037 221.144 C 360.447 220.833,360.469 216.913,360.469 144.923 C 360.469 65.993,360.500 68.412,359.494 68.453 C 359.259 68.463,359.325 68.555,359.666 68.692 M38.664 144.904 C 38.664 186.757,38.693 203.916,38.728 183.034 C 38.762 162.153,38.762 127.909,38.728 106.938 C 38.693 85.966,38.664 103.051,38.664 144.904 M97.506 100.000 C 97.443 100.102,97.742 100.192,98.171 100.200 C 98.599 100.208,99.172 100.299,99.444 100.402 C 99.744 100.516,99.695 100.441,99.321 100.211 C 98.661 99.807,97.695 99.694,97.506 100.000 M95.615 101.044 C 93.778 102.244,93.441 102.565,94.750 101.867 C 96.105 101.144,97.289 100.306,96.945 100.313 C 96.825 100.316,96.226 100.645,95.615 101.044 M101.909 101.927 C 102.420 102.273,102.886 102.508,102.945 102.449 C 103.064 102.330,101.474 101.297,101.172 101.297 C 101.067 101.297,101.399 101.581,101.909 101.927 M92.368 103.041 L 91.785 103.550 92.526 103.116 C 93.502 102.545,93.516 102.532,93.212 102.532 C 93.069 102.532,92.689 102.761,92.368 103.041 M104.015 103.150 C 104.475 103.490,104.957 103.768,105.086 103.768 C 105.214 103.768,104.910 103.490,104.409 103.150 C 103.908 102.810,103.426 102.532,103.338 102.532 C 103.250 102.532,103.554 102.810,104.015 103.150 M89.006 105.000 C 88.564 105.270,88.203 105.556,88.203 105.637 C 88.203 105.754,89.689 104.957,90.159 104.590 C 90.546 104.286,89.658 104.602,89.006 105.000 M106.506 104.584 C 106.563 104.625,106.943 104.854,107.350 105.093 L 108.091 105.527 107.508 105.018 C 107.187 104.738,106.807 104.509,106.664 104.509 C 106.521 104.509,106.449 104.543,106.506 104.584 M86.727 106.374 C 85.599 107.171,85.987 107.160,87.161 106.362 C 87.661 106.022,87.961 105.750,87.828 105.756 C 87.694 105.763,87.199 106.041,86.727 106.374 M112.689 108.283 C 113.835 109.053,115.620 110.039,115.009 109.566 C 114.104 108.863,112.294 107.730,112.072 107.725 C 111.951 107.723,112.229 107.974,112.689 108.283 M81.161 109.714 C 80.754 109.975,80.547 110.189,80.701 110.190 C 80.856 110.191,81.245 109.973,81.566 109.706 C 82.301 109.094,82.124 109.097,81.161 109.714 M116.468 110.562 C 116.969 110.902,117.451 111.180,117.539 111.180 C 117.627 111.180,117.323 110.902,116.862 110.562 C 116.402 110.222,115.920 109.944,115.792 109.944 C 115.663 109.944,115.968 110.222,116.468 110.562 M77.604 111.819 C 77.142 112.147,76.871 112.415,77.000 112.415 C 77.130 112.415,77.612 112.137,78.073 111.797 C 79.145 111.007,78.720 111.026,77.604 111.819 M118.373 111.627 C 118.697 111.873,119.407 112.318,119.951 112.617 C 121.017 113.204,120.527 112.770,119.013 111.788 C 117.920 111.079,117.517 110.978,118.373 111.627 M76.211 112.676 C 75.889 113.198,76.364 114.142,77.150 114.540 C 77.590 114.763,78.145 115.117,78.383 115.326 C 78.622 115.535,78.870 115.654,78.934 115.589 C 79.033 115.490,78.192 114.903,76.865 114.145 C 76.677 114.038,76.510 113.605,76.495 113.183 C 76.464 112.334,76.444 112.299,76.211 112.676 M122.118 113.897 C 122.464 114.169,122.827 114.392,122.926 114.392 C 123.025 114.392,122.823 114.169,122.477 113.897 C 122.132 113.626,121.768 113.403,121.670 113.403 C 121.571 113.403,121.773 113.626,122.118 113.897 M125.139 115.680 C 125.411 115.837,125.780 116.112,125.960 116.290 C 126.139 116.469,126.411 116.615,126.563 116.615 C 126.716 116.615,126.464 116.337,126.004 115.998 C 125.543 115.658,125.049 115.383,124.906 115.387 C 124.762 115.392,124.867 115.523,125.139 115.680 M80.049 116.245 C 80.510 116.584,80.992 116.862,81.120 116.862 C 81.249 116.862,80.944 116.584,80.444 116.245 C 79.943 115.905,79.461 115.627,79.373 115.627 C 79.284 115.627,79.589 115.905,80.049 116.245 M130.998 119.209 C 131.498 119.549,131.994 119.827,132.101 119.827 C 132.208 119.827,131.886 119.549,131.386 119.209 C 130.886 118.870,130.390 118.592,130.283 118.592 C 130.176 118.592,130.498 118.870,130.998 119.209 M86.247 119.902 C 86.303 119.943,86.683 120.172,87.091 120.411 L 87.832 120.845 87.249 120.336 C 86.928 120.056,86.548 119.827,86.405 119.827 C 86.261 119.827,86.190 119.861,86.247 119.902 M133.436 120.643 C 133.493 120.684,133.873 120.913,134.280 121.152 L 135.022 121.586 134.438 121.077 C 134.118 120.797,133.738 120.568,133.594 120.568 C 133.451 120.568,133.380 120.602,133.436 120.643 M89.404 121.789 C 89.724 122.069,90.104 122.298,90.248 122.298 C 90.551 122.298,90.537 122.285,89.561 121.714 L 88.820 121.280 89.404 121.789 M136.628 122.523 C 136.967 122.801,137.356 123.029,137.492 123.030 C 137.757 123.031,137.310 122.689,136.504 122.273 C 136.176 122.103,136.217 122.187,136.628 122.523 M92.503 123.657 C 93.003 123.996,93.485 124.274,93.573 124.274 C 93.662 124.274,93.357 123.996,92.897 123.657 C 92.436 123.317,91.955 123.039,91.826 123.039 C 91.698 123.039,92.002 123.317,92.503 123.657 M139.692 124.398 C 140.193 124.737,140.675 125.015,140.763 125.015 C 140.851 125.015,140.547 124.737,140.086 124.398 C 139.626 124.058,139.144 123.780,139.016 123.780 C 138.887 123.780,139.192 124.058,139.692 124.398 M93.885 124.370 C 93.885 124.541,95.628 125.579,95.735 125.472 C 95.786 125.420,95.391 125.126,94.857 124.819 C 94.322 124.511,93.885 124.309,93.885 124.370 M141.075 125.119 C 141.075 125.262,142.695 126.251,142.930 126.251 C 143.034 126.251,142.711 125.973,142.210 125.633 C 141.312 125.024,141.075 124.916,141.075 125.119 M98.051 127.000 C 98.372 127.267,98.761 127.479,98.916 127.469 C 99.070 127.460,98.947 127.332,98.641 127.185 C 98.335 127.037,98.085 126.822,98.085 126.707 C 98.085 126.592,97.946 126.502,97.776 126.506 C 97.607 126.511,97.730 126.733,98.051 127.000 M145.342 127.733 C 145.688 128.005,146.051 128.227,146.150 128.227 C 146.249 128.227,146.047 128.005,145.702 127.733 C 145.356 127.461,144.993 127.239,144.894 127.239 C 144.795 127.239,144.997 127.461,145.342 127.733 M99.691 127.871 C 100.634 128.591,102.410 129.701,102.628 129.705 C 102.972 129.712,101.787 128.874,100.432 128.152 C 99.753 127.789,99.419 127.663,99.691 127.871 M148.834 129.833 C 149.334 130.173,149.816 130.451,149.905 130.451 C 149.993 130.451,149.688 130.173,149.228 129.833 C 148.767 129.494,148.286 129.216,148.157 129.216 C 148.029 129.216,148.333 129.494,148.834 129.833 M151.822 131.578 C 152.230 131.807,152.759 132.166,152.997 132.374 C 153.236 132.583,153.479 132.706,153.538 132.647 C 153.678 132.507,152.210 131.510,151.575 131.313 C 151.303 131.229,151.414 131.348,151.822 131.578 M106.757 132.176 C 107.355 132.581,107.944 132.915,108.067 132.917 C 108.189 132.920,107.800 132.590,107.202 132.185 C 106.604 131.780,106.015 131.446,105.892 131.444 C 105.770 131.441,106.159 131.771,106.757 132.176 M154.382 133.155 C 154.703 133.434,155.092 133.661,155.247 133.659 C 155.541 133.655,155.131 133.328,154.293 132.899 C 153.904 132.701,153.924 132.755,154.382 133.155 M110.847 134.604 C 111.435 135.162,111.556 135.412,111.341 135.629 C 111.125 135.846,111.161 135.876,111.489 135.751 C 112.104 135.517,112.038 135.357,110.994 134.568 L 110.068 133.867 110.847 134.604 M157.257 135.065 C 157.356 135.431,157.261 135.685,156.960 135.860 C 156.716 136.002,156.642 136.122,156.795 136.126 C 157.337 136.141,157.690 135.454,157.389 134.973 C 157.139 134.574,157.126 134.583,157.257 135.065 M108.496 137.377 C 107.730 138.015,108.076 138.008,108.889 137.369 C 109.234 137.097,109.419 136.878,109.298 136.883 C 109.178 136.887,108.817 137.110,108.496 137.377 M154.324 137.319 C 154.257 137.427,153.194 138.112,151.962 138.842 C 150.729 139.571,149.772 140.219,149.835 140.282 C 149.897 140.344,150.537 140.008,151.256 139.535 C 151.975 139.062,152.841 138.531,153.181 138.355 C 154.058 137.902,155.026 137.122,154.711 137.122 C 154.565 137.122,154.391 137.210,154.324 137.319 M106.485 138.491 C 104.963 139.524,104.604 139.859,105.621 139.300 C 106.761 138.673,107.889 137.853,107.569 137.884 C 107.449 137.896,106.961 138.169,106.485 138.491 M103.061 140.589 C 102.295 141.227,102.641 141.220,103.453 140.581 C 103.799 140.309,103.983 140.090,103.863 140.095 C 103.743 140.099,103.382 140.322,103.061 140.589 M147.869 141.244 C 147.080 141.666,145.864 142.557,146.076 142.557 C 146.146 142.557,146.849 142.168,147.639 141.692 C 149.085 140.822,149.247 140.507,147.869 141.244 M99.568 142.681 C 99.107 143.020,98.803 143.298,98.891 143.298 C 98.979 143.298,99.461 143.020,99.962 142.681 C 100.462 142.341,100.767 142.063,100.638 142.063 C 100.510 142.063,100.028 142.341,99.568 142.681 M144.904 143.068 C 144.497 143.329,144.290 143.543,144.445 143.544 C 144.599 143.545,144.988 143.327,145.309 143.059 C 146.044 142.448,145.867 142.451,144.904 143.068 M97.626 143.801 C 97.305 144.068,97.149 144.287,97.279 144.287 C 97.409 144.287,97.772 144.064,98.085 143.792 C 98.822 143.153,98.394 143.161,97.626 143.801 M141.569 145.028 C 140.120 145.991,140.461 145.991,141.979 145.028 C 142.622 144.620,143.043 144.287,142.914 144.288 C 142.786 144.288,142.180 144.621,141.569 145.028 M94.132 145.893 C 93.672 146.232,93.367 146.510,93.456 146.510 C 93.544 146.510,94.026 146.232,94.526 145.893 C 95.027 145.553,95.331 145.275,95.203 145.275 C 95.074 145.275,94.593 145.553,94.132 145.893 M92.032 147.134 C 91.489 147.469,91.155 147.743,91.291 147.743 C 91.590 147.744,93.144 146.816,93.144 146.637 C 93.144 146.454,93.118 146.465,92.032 147.134 M136.158 148.244 C 135.560 148.649,135.171 148.979,135.293 148.976 C 135.416 148.974,136.005 148.640,136.603 148.235 C 137.201 147.830,137.590 147.500,137.468 147.503 C 137.345 147.505,136.756 147.839,136.158 148.244 M87.882 149.585 C 87.365 149.891,86.809 150.287,86.646 150.466 C 86.294 150.850,88.164 149.795,88.688 149.313 C 89.178 148.863,88.992 148.925,87.882 149.585 M85.238 151.204 C 84.924 151.476,84.751 151.699,84.852 151.699 C 84.953 151.699,85.319 151.476,85.665 151.204 C 86.010 150.933,86.184 150.710,86.050 150.710 C 85.917 150.710,85.551 150.933,85.238 151.204 M130.776 151.398 C 130.479 151.631,129.786 152.093,129.237 152.424 C 128.687 152.756,128.278 153.067,128.327 153.116 C 128.410 153.199,129.201 152.719,131.065 151.457 C 131.471 151.182,131.693 150.961,131.559 150.966 C 131.425 150.970,131.073 151.165,130.776 151.398 M81.830 153.216 C 81.383 153.502,81.064 153.784,81.122 153.842 C 81.180 153.899,81.644 153.663,82.155 153.317 C 83.269 152.561,82.989 152.474,81.830 153.216 M79.581 154.561 C 79.119 154.889,78.847 155.158,78.977 155.158 C 79.106 155.158,79.589 154.880,80.049 154.540 C 81.121 153.749,80.696 153.768,79.581 154.561 M125.139 154.795 C 124.173 155.587,124.433 155.581,125.510 154.787 C 125.970 154.447,126.242 154.173,126.113 154.178 C 125.985 154.183,125.547 154.460,125.139 154.795 M183.670 154.689 C 182.909 155.530,182.809 172.432,183.561 173.184 L 184.064 173.687 247.901 173.687 C 308.408 173.687,311.754 173.665,312.064 173.255 C 312.342 172.887,312.340 172.869,312.045 173.132 C 311.449 173.663,184.235 173.576,183.702 173.043 C 183.034 172.375,183.245 155.264,183.928 154.765 C 184.342 154.463,193.326 154.422,248.203 154.477 C 283.290 154.511,311.946 154.456,311.883 154.355 C 311.820 154.253,283.052 154.169,247.955 154.169 L 184.141 154.169 183.670 154.689 M123.410 155.899 C 123.002 156.169,122.779 156.388,122.915 156.386 C 123.163 156.382,124.506 155.419,124.274 155.412 C 124.206 155.410,123.817 155.629,123.410 155.899 M312.403 164.175 C 312.403 168.931,312.436 170.842,312.477 168.421 C 312.517 166.001,312.517 162.109,312.476 159.774 C 312.436 157.439,312.403 159.419,312.403 164.175 M76.645 156.283 C 76.067 156.688,75.902 157.726,76.370 158.015 C 76.559 158.132,76.592 157.952,76.477 157.428 C 76.333 156.772,76.403 156.623,77.007 156.295 C 77.389 156.088,77.588 155.914,77.448 155.909 C 77.309 155.903,76.947 156.072,76.645 156.283 M78.196 158.994 C 78.952 159.579,80.547 160.593,80.711 160.593 C 80.952 160.593,79.749 159.737,78.691 159.156 C 78.147 158.857,77.925 158.784,78.196 158.994 M117.974 159.111 C 117.566 159.381,117.344 159.600,117.480 159.598 C 117.728 159.594,119.071 158.631,118.839 158.624 C 118.771 158.621,118.382 158.841,117.974 159.111 M116.047 160.208 C 114.639 161.044,114.339 161.463,115.686 160.712 C 116.331 160.353,116.921 159.957,116.998 159.832 C 117.178 159.540,117.162 159.547,116.047 160.208 M81.599 161.087 C 81.945 161.359,82.308 161.581,82.407 161.581 C 82.506 161.581,82.304 161.359,81.959 161.087 C 81.613 160.815,81.249 160.593,81.151 160.593 C 81.052 160.593,81.254 160.815,81.599 161.087 M83.508 162.199 C 83.969 162.539,84.451 162.817,84.579 162.817 C 84.708 162.817,84.403 162.539,83.902 162.199 C 83.402 161.859,82.920 161.581,82.832 161.581 C 82.743 161.581,83.048 161.859,83.508 162.199 M109.450 164.175 C 108.990 164.515,108.685 164.793,108.774 164.793 C 108.862 164.793,109.344 164.515,109.844 164.175 C 110.345 163.836,110.649 163.558,110.521 163.558 C 110.393 163.558,109.911 163.836,109.450 164.175 M86.967 164.277 C 87.307 164.555,87.696 164.783,87.832 164.784 C 88.096 164.786,87.650 164.444,86.844 164.027 C 86.516 163.857,86.557 163.941,86.967 164.277 M88.573 165.168 C 88.845 165.389,89.290 165.680,89.561 165.813 L 90.056 166.056 89.561 165.653 C 89.290 165.432,88.845 165.142,88.573 165.008 L 88.079 164.766 88.573 165.168 M107.252 165.432 C 106.790 165.760,106.518 166.028,106.648 166.028 C 106.778 166.028,107.260 165.750,107.721 165.411 C 108.793 164.620,108.368 164.639,107.252 165.432 M90.673 166.523 C 90.987 166.794,91.352 167.017,91.486 167.017 C 91.619 167.017,91.445 166.794,91.100 166.523 C 90.754 166.251,90.389 166.028,90.288 166.028 C 90.186 166.028,90.360 166.251,90.673 166.523 M103.802 167.519 C 103.036 168.157,103.382 168.150,104.194 167.511 C 104.540 167.239,104.724 167.020,104.604 167.025 C 104.484 167.029,104.123 167.252,103.802 167.519 M94.256 168.601 C 94.663 168.951,95.099 169.238,95.223 169.239 C 95.491 169.240,95.488 169.238,94.379 168.522 L 93.515 167.964 94.256 168.601 M102.038 168.623 C 101.578 168.962,101.306 169.236,101.434 169.231 C 101.682 169.222,103.246 168.008,103.013 168.006 C 102.937 168.005,102.499 168.283,102.038 168.623 M96.176 169.734 C 96.522 170.006,96.885 170.229,96.984 170.229 C 97.083 170.229,96.881 170.006,96.535 169.734 C 96.190 169.463,95.826 169.240,95.728 169.240 C 95.629 169.240,95.831 169.463,96.176 169.734 M100.096 169.743 C 99.330 170.381,99.676 170.373,100.488 169.734 C 100.834 169.463,101.018 169.244,100.898 169.248 C 100.778 169.253,100.417 169.475,100.096 169.743 M6.585 240.704 C 6.735 240.946,392.277 240.946,392.426 240.704 C 392.489 240.602,305.675 240.519,199.506 240.519 C 93.337 240.519,6.522 240.602,6.585 240.704 " stroke="none" fill="#949494" fill-rule="evenodd"></path><path id="path4" d="M6.701 10.958 C 6.496 11.205,6.439 41.379,6.485 125.906 L 6.547 240.519 199.506 240.519 L 392.464 240.519 392.527 125.906 C 392.572 41.379,392.516 11.205,392.311 10.958 C 391.896 10.458,7.116 10.458,6.701 10.958 M392.217 125.633 L 392.217 240.272 199.506 240.272 L 6.794 240.272 6.731 125.880 C 6.696 62.965,6.721 11.350,6.785 11.180 C 6.879 10.933,45.563 10.883,199.560 10.933 L 392.217 10.994 392.217 125.633 M38.592 29.944 C 38.166 30.370,38.166 48.691,38.592 49.117 C 38.964 49.489,70.074 49.542,70.661 49.172 C 71.251 48.799,71.367 30.636,70.783 30.052 C 70.258 29.527,39.114 29.423,38.592 29.944 M102.829 29.944 C 102.403 30.370,102.403 48.691,102.829 49.117 C 103.261 49.549,359.988 49.549,360.420 49.117 C 360.845 48.691,360.845 30.370,360.420 29.944 C 359.988 29.512,103.261 29.512,102.829 29.944 M70.364 30.191 C 70.790 30.617,70.790 48.444,70.364 48.870 C 69.992 49.242,39.623 49.295,39.036 48.924 C 38.550 48.617,38.334 30.814,38.811 30.240 C 39.203 29.768,69.894 29.721,70.364 30.191 M360.201 30.240 C 360.677 30.814,360.462 48.617,359.975 48.925 C 359.511 49.219,103.404 49.132,103.109 48.837 C 102.996 48.724,102.869 44.526,102.827 39.507 L 102.752 30.384 103.321 30.155 C 104.352 29.742,359.858 29.826,360.201 30.240 M38.551 68.421 C 38.274 68.939,38.169 220.507,38.445 221.227 C 38.676 221.828,360.336 221.828,360.567 221.227 C 360.843 220.507,360.738 68.939,360.461 68.421 C 360.057 67.668,38.954 67.668,38.551 68.421 M360.173 68.734 C 360.605 69.166,360.605 220.643,360.173 221.075 C 359.657 221.591,38.890 221.497,38.692 220.980 C 38.496 220.469,38.496 69.339,38.692 68.828 C 38.890 68.312,359.657 68.217,360.173 68.734 M96.823 100.624 C 96.362 100.933,94.873 101.829,93.515 102.614 C 90.910 104.119,87.349 106.233,86.103 107.012 C 85.695 107.267,85.028 107.646,84.620 107.855 C 84.212 108.063,83.379 108.562,82.767 108.965 C 82.156 109.367,81.322 109.867,80.914 110.076 C 80.506 110.286,79.673 110.786,79.061 111.188 C 78.450 111.590,77.577 112.092,77.123 112.304 C 76.313 112.681,76.135 113.843,76.848 114.101 C 76.969 114.144,77.482 114.461,77.987 114.803 C 78.492 115.146,79.135 115.530,79.415 115.655 C 79.696 115.781,80.426 116.213,81.038 116.615 C 81.649 117.017,82.372 117.457,82.644 117.593 C 82.915 117.728,83.749 118.227,84.497 118.701 C 85.244 119.175,86.189 119.733,86.597 119.940 C 87.004 120.148,87.783 120.597,88.326 120.939 C 88.870 121.280,89.704 121.785,90.179 122.061 C 90.655 122.337,91.454 122.809,91.956 123.110 C 93.772 124.199,96.496 125.801,97.221 126.207 C 97.628 126.435,98.017 126.689,98.085 126.771 C 98.191 126.899,99.841 127.856,102.656 129.421 C 103.064 129.648,103.435 129.919,103.482 130.025 C 103.528 130.130,103.917 130.381,104.346 130.582 C 104.775 130.784,105.571 131.218,106.115 131.548 C 107.810 132.576,108.995 133.278,109.688 133.663 C 110.582 134.160,112.058 135.345,111.913 135.450 C 111.771 135.553,110.089 136.627,109.080 137.260 C 108.672 137.516,108.037 137.895,107.669 138.103 C 106.650 138.678,103.520 140.528,102.409 141.211 C 101.529 141.752,100.697 142.241,98.978 143.228 C 98.691 143.392,98.289 143.645,98.085 143.788 C 97.881 143.932,97.363 144.242,96.933 144.477 C 95.882 145.051,94.418 145.924,93.515 146.514 C 93.107 146.781,92.384 147.194,91.909 147.434 C 91.433 147.673,90.988 147.938,90.920 148.021 C 90.852 148.105,90.352 148.416,89.809 148.712 C 89.265 149.008,88.042 149.742,87.091 150.343 C 86.140 150.944,85.028 151.607,84.620 151.815 C 84.212 152.024,83.379 152.523,82.767 152.925 C 82.156 153.328,81.322 153.831,80.914 154.045 C 80.506 154.259,79.728 154.704,79.185 155.033 C 78.641 155.363,77.769 155.867,77.247 156.153 C 76.413 156.610,76.090 157.661,76.672 158.024 C 76.695 158.038,77.470 158.483,78.393 159.012 C 79.316 159.542,80.484 160.225,80.987 160.529 C 81.491 160.834,82.236 161.255,82.644 161.465 C 83.051 161.675,83.885 162.170,84.497 162.565 C 85.108 162.960,86.387 163.736,87.338 164.289 C 88.289 164.842,89.512 165.569,90.056 165.903 C 90.599 166.237,91.433 166.738,91.909 167.017 C 92.384 167.295,93.218 167.800,93.762 168.140 C 94.305 168.479,95.028 168.893,95.368 169.058 C 95.707 169.224,96.362 169.610,96.823 169.917 C 97.845 170.599,98.442 170.617,99.568 170.003 C 100.043 169.743,100.766 169.353,101.174 169.137 C 101.581 168.921,102.415 168.416,103.027 168.013 C 103.638 167.611,104.472 167.111,104.880 166.902 C 105.287 166.692,106.121 166.192,106.733 165.790 C 107.344 165.388,108.178 164.884,108.586 164.670 C 108.993 164.456,109.771 164.012,110.315 163.682 C 111.689 162.848,113.635 161.695,117.168 159.620 C 118.427 158.882,119.734 158.088,120.074 157.856 C 120.414 157.624,121.792 156.783,123.137 155.987 C 124.482 155.191,125.983 154.297,126.473 154.001 C 126.962 153.705,127.696 153.287,128.104 153.074 C 128.511 152.860,129.345 152.356,129.957 151.954 C 130.568 151.552,131.402 151.048,131.810 150.834 C 132.217 150.621,132.996 150.176,133.539 149.846 C 134.083 149.516,134.917 149.012,135.392 148.727 C 135.868 148.441,136.702 147.937,137.245 147.608 C 137.789 147.278,138.511 146.868,138.851 146.697 C 139.191 146.526,140.124 145.960,140.925 145.440 C 141.726 144.920,142.615 144.391,142.901 144.263 C 143.188 144.136,144.200 143.537,145.151 142.931 C 146.103 142.326,147.353 141.582,147.931 141.280 C 148.508 140.977,148.981 140.640,148.981 140.531 C 148.981 140.423,149.093 140.334,149.229 140.334 C 149.366 140.334,150.506 139.712,151.762 138.953 C 153.018 138.194,154.268 137.444,154.540 137.286 C 156.277 136.278,157.381 135.529,157.381 135.360 C 157.381 135.009,156.291 134.113,155.281 133.634 C 154.737 133.377,153.959 132.947,153.552 132.680 C 153.144 132.413,152.421 131.961,151.946 131.677 C 151.470 131.392,150.636 130.893,150.093 130.567 C 149.549 130.242,148.715 129.749,148.240 129.473 C 147.764 129.197,146.930 128.695,146.387 128.358 C 145.353 127.717,144.339 127.116,142.681 126.161 C 142.137 125.849,141.303 125.354,140.828 125.063 C 140.352 124.772,139.574 124.306,139.098 124.027 C 138.623 123.748,137.844 123.284,137.369 122.994 C 136.893 122.705,136.282 122.342,136.010 122.188 C 135.370 121.826,132.937 120.385,132.317 120.001 C 132.053 119.837,131.101 119.245,130.202 118.685 C 129.303 118.125,128.324 117.589,128.027 117.495 C 127.729 117.400,127.486 117.228,127.486 117.112 C 127.486 116.996,127.097 116.772,126.621 116.615 C 126.146 116.458,125.757 116.248,125.757 116.148 C 125.757 116.047,125.395 115.773,124.954 115.537 C 124.512 115.301,123.746 114.864,123.252 114.565 C 122.758 114.266,121.501 113.521,120.458 112.909 C 119.415 112.298,118.192 111.575,117.740 111.303 C 117.288 111.032,116.100 110.330,115.099 109.745 C 114.098 109.160,112.779 108.358,112.168 107.963 C 111.557 107.568,110.723 107.075,110.315 106.867 C 109.907 106.659,109.129 106.209,108.586 105.868 C 108.042 105.527,107.208 105.022,106.733 104.745 C 106.257 104.469,105.423 103.974,104.880 103.644 C 104.336 103.314,103.558 102.869,103.150 102.655 C 102.742 102.442,101.909 101.942,101.297 101.544 C 98.828 99.939,98.074 99.784,96.823 100.624 M99.878 101.149 C 100.359 101.475,100.986 101.816,101.272 101.907 C 101.557 101.997,101.791 102.162,101.791 102.272 C 101.791 102.382,102.153 102.614,102.594 102.788 C 103.036 102.961,103.508 103.225,103.644 103.374 C 103.780 103.522,104.280 103.840,104.756 104.078 C 105.232 104.317,106.065 104.794,106.609 105.137 C 107.153 105.480,107.959 105.926,108.400 106.127 C 108.842 106.328,109.203 106.588,109.203 106.706 C 109.203 106.823,109.565 107.068,110.006 107.249 C 110.448 107.431,110.920 107.668,111.056 107.777 C 111.830 108.397,113.251 109.218,113.780 109.350 C 114.117 109.435,114.392 109.595,114.392 109.707 C 114.392 109.818,115.238 110.390,116.273 110.977 C 117.307 111.564,118.558 112.291,119.052 112.592 C 119.546 112.893,120.284 113.314,120.692 113.527 C 121.099 113.741,121.933 114.241,122.545 114.639 C 123.156 115.036,123.990 115.536,124.398 115.750 C 125.091 116.113,126.110 116.722,127.510 117.609 C 128.874 118.473,129.129 118.619,129.895 118.971 C 130.337 119.174,130.698 119.437,130.698 119.557 C 130.698 119.676,130.996 119.848,131.361 119.940 C 131.725 120.031,132.345 120.377,132.739 120.708 C 133.132 121.039,133.551 121.309,133.671 121.309 C 133.886 121.309,135.315 122.201,136.245 122.915 C 136.511 123.119,136.931 123.286,137.180 123.286 C 137.428 123.286,137.691 123.443,137.765 123.634 C 137.838 123.825,138.252 124.127,138.684 124.304 C 139.115 124.482,139.580 124.716,139.716 124.826 C 140.611 125.546,142.257 126.490,142.627 126.493 C 142.869 126.496,143.127 126.654,143.200 126.846 C 143.274 127.037,143.687 127.337,144.119 127.511 C 144.551 127.686,144.960 127.903,145.028 127.994 C 145.096 128.084,145.485 128.348,145.893 128.580 C 146.300 128.813,147.078 129.269,147.622 129.594 C 148.166 129.919,148.999 130.416,149.475 130.698 C 149.951 130.980,150.784 131.480,151.328 131.810 C 151.872 132.140,152.594 132.553,152.934 132.728 C 153.274 132.903,153.885 133.261,154.293 133.522 C 154.700 133.783,155.512 134.302,156.097 134.675 L 157.160 135.353 155.530 136.299 C 154.633 136.820,153.488 137.495,152.985 137.799 C 152.481 138.104,151.736 138.525,151.328 138.735 C 150.920 138.945,150.086 139.446,149.475 139.848 C 148.863 140.250,148.021 140.740,147.602 140.936 C 147.184 141.133,146.698 141.466,146.522 141.678 C 146.346 141.890,146.007 142.063,145.769 142.063 C 145.530 142.063,145.205 142.220,145.047 142.411 C 144.888 142.602,144.374 142.941,143.905 143.164 C 143.435 143.386,143.051 143.662,143.051 143.777 C 143.051 143.892,142.746 144.062,142.372 144.156 C 141.998 144.249,141.506 144.493,141.277 144.699 C 140.836 145.096,139.741 145.739,138.419 146.377 C 137.977 146.590,137.616 146.865,137.616 146.988 C 137.616 147.111,137.294 147.283,136.900 147.369 C 136.507 147.456,135.989 147.743,135.750 148.007 C 135.511 148.271,135.229 148.487,135.123 148.487 C 134.912 148.487,132.378 149.999,132.180 150.244 C 132.112 150.328,131.779 150.481,131.439 150.584 C 131.099 150.687,130.623 150.980,130.380 151.235 C 130.136 151.490,129.823 151.699,129.684 151.699 C 129.544 151.699,129.076 151.949,128.643 152.255 C 127.448 153.101,126.952 153.390,125.961 153.817 C 125.462 154.032,124.993 154.366,124.919 154.559 C 124.845 154.752,124.609 154.910,124.396 154.910 C 124.182 154.910,123.706 155.115,123.338 155.366 C 121.503 156.614,120.642 157.134,120.408 157.134 C 120.266 157.134,119.949 157.356,119.704 157.628 C 119.458 157.900,119.065 158.122,118.831 158.122 C 118.597 158.122,118.261 158.295,118.086 158.507 C 117.910 158.719,117.424 159.058,117.005 159.262 C 115.791 159.851,114.638 160.519,114.189 160.893 C 113.961 161.083,113.496 161.373,113.156 161.538 C 112.817 161.703,112.094 162.110,111.550 162.442 C 111.007 162.774,110.201 163.218,109.759 163.429 C 109.317 163.639,108.956 163.904,108.956 164.018 C 108.956 164.131,108.539 164.407,108.030 164.630 C 107.520 164.854,106.658 165.310,106.115 165.644 C 105.571 165.978,104.765 166.444,104.324 166.680 C 103.882 166.915,103.521 167.190,103.521 167.290 C 103.521 167.391,103.132 167.601,102.656 167.758 C 102.180 167.915,101.791 168.138,101.791 168.255 C 101.791 168.371,101.541 168.545,101.235 168.641 C 100.930 168.737,100.292 169.078,99.819 169.399 C 98.503 170.290,97.789 170.179,95.615 168.743 C 95.003 168.339,94.197 167.886,93.823 167.736 C 93.450 167.585,93.144 167.376,93.144 167.270 C 93.144 167.163,92.783 166.934,92.341 166.759 C 91.899 166.584,91.352 166.283,91.125 166.091 C 90.575 165.623,89.228 164.850,88.388 164.519 C 88.014 164.371,87.708 164.162,87.708 164.055 C 87.708 163.947,87.273 163.684,86.741 163.471 C 86.209 163.259,85.698 162.962,85.605 162.812 C 85.513 162.662,85.198 162.429,84.905 162.294 C 84.612 162.160,83.928 161.782,83.385 161.454 C 82.841 161.127,82.007 160.625,81.532 160.339 C 81.056 160.053,80.222 159.549,79.679 159.219 C 79.135 158.890,78.329 158.451,77.888 158.244 C 76.365 157.532,76.759 156.725,79.204 155.551 C 79.623 155.350,80.104 155.019,80.274 154.814 C 80.444 154.609,80.963 154.316,81.428 154.163 C 81.893 154.009,82.273 153.790,82.273 153.675 C 82.273 153.560,82.662 153.338,83.138 153.181 C 83.613 153.024,84.002 152.814,84.002 152.713 C 84.002 152.613,84.364 152.338,84.805 152.103 C 85.247 151.867,86.053 151.402,86.597 151.070 C 87.140 150.738,87.918 150.295,88.326 150.085 C 88.734 149.875,89.568 149.376,90.179 148.976 C 90.791 148.575,91.569 148.113,91.909 147.949 C 92.248 147.784,92.697 147.509,92.905 147.337 C 93.114 147.165,93.948 146.676,94.758 146.250 C 95.569 145.824,96.344 145.336,96.480 145.164 C 96.617 144.993,97.006 144.768,97.345 144.664 C 97.684 144.560,98.149 144.311,98.377 144.111 C 98.820 143.722,99.928 143.086,101.235 142.468 C 101.677 142.259,102.038 141.971,102.038 141.829 C 102.038 141.686,102.261 141.569,102.532 141.569 C 102.804 141.569,103.246 141.349,103.515 141.080 C 103.784 140.812,104.367 140.420,104.812 140.209 C 105.902 139.693,106.642 139.252,107.163 138.808 C 107.402 138.605,107.951 138.299,108.382 138.128 C 108.814 137.957,109.228 137.661,109.301 137.470 C 109.375 137.278,109.653 137.122,109.919 137.122 C 110.185 137.122,110.550 136.975,110.730 136.796 C 110.909 136.617,111.362 136.271,111.736 136.027 C 112.560 135.488,112.602 135.014,111.859 134.624 C 111.553 134.463,111.221 134.194,111.121 134.025 C 111.021 133.856,110.657 133.647,110.312 133.561 C 109.967 133.474,109.493 133.232,109.259 133.023 C 108.536 132.379,106.975 131.439,106.628 131.439 C 106.447 131.439,106.146 131.255,105.960 131.030 C 105.773 130.805,105.287 130.468,104.880 130.280 C 104.472 130.092,103.638 129.613,103.027 129.216 C 102.415 128.818,101.581 128.318,101.174 128.104 C 100.766 127.891,99.988 127.446,99.444 127.116 C 98.901 126.786,98.067 126.286,97.591 126.004 C 97.116 125.722,96.282 125.221,95.738 124.891 C 95.195 124.562,94.416 124.117,94.009 123.903 C 93.601 123.689,92.767 123.186,92.156 122.785 C 91.544 122.383,90.738 121.932,90.364 121.781 C 89.991 121.631,89.685 121.415,89.685 121.301 C 89.685 121.187,89.296 120.954,88.820 120.782 C 88.345 120.610,87.956 120.374,87.956 120.259 C 87.956 120.143,87.558 119.883,87.073 119.680 C 86.587 119.477,85.649 118.931,84.987 118.466 C 84.326 118.001,83.500 117.549,83.152 117.461 C 82.804 117.374,82.520 117.198,82.520 117.070 C 82.520 116.942,82.120 116.670,81.630 116.465 C 81.141 116.261,80.612 115.987,80.456 115.857 C 79.946 115.430,78.457 114.516,77.798 114.225 C 76.805 113.785,76.698 112.919,77.595 112.580 C 77.994 112.430,78.320 112.219,78.320 112.112 C 78.320 112.005,78.765 111.739,79.308 111.522 C 79.852 111.304,80.296 111.034,80.296 110.922 C 80.296 110.811,80.547 110.640,80.852 110.544 C 81.158 110.448,82.055 109.940,82.846 109.415 C 83.637 108.891,84.379 108.462,84.495 108.462 C 84.611 108.462,85.020 108.208,85.404 107.896 C 85.788 107.585,86.380 107.191,86.720 107.020 C 87.060 106.849,87.783 106.437,88.326 106.105 C 88.870 105.773,89.668 105.335,90.100 105.132 C 90.533 104.929,90.957 104.649,91.044 104.509 C 91.130 104.369,91.555 104.085,91.987 103.879 C 92.420 103.672,93.218 103.230,93.762 102.896 C 94.305 102.562,95.104 102.123,95.536 101.920 C 95.968 101.718,96.397 101.431,96.488 101.284 C 97.007 100.442,98.736 100.374,99.878 101.149 M183.926 154.767 C 183.245 155.264,183.036 172.377,183.702 173.043 C 184.267 173.608,311.555 173.660,312.023 173.095 C 312.499 172.522,312.284 154.966,311.797 154.658 C 311.129 154.236,184.506 154.343,183.926 154.767 M311.164 155.151 L 311.797 155.392 311.797 164.158 L 311.797 172.924 310.994 173.067 C 310.553 173.145,281.841 173.178,247.190 173.140 L 184.188 173.070 184.123 164.328 C 184.076 158.082,184.138 155.490,184.338 155.248 C 184.686 154.830,310.066 154.734,311.164 155.151 " stroke="none" fill="#7c7c7c" fill-rule="evenodd"></path></g></svg>