<svg id="svg" version="1.1" xmlns="http://www.w3.org/2000/svg" xmlns:xlink="http://www.w3.org/1999/xlink" width="400" height="222.3404255319149" viewBox="0, 0, 400,222.3404255319149"><g id="svgg"><path id="path0" d="M74.486 17.349 C 72.824 17.564,69.403 18.414,68.631 18.804 C 68.285 18.979,67.904 19.122,67.784 19.122 C 67.665 19.122,66.747 19.524,65.746 20.016 C 52.912 26.321,49.026 42.723,57.530 54.692 C 58.819 56.507,62.418 59.757,64.084 60.610 C 67.080 62.145,67.836 62.485,68.937 62.790 C 71.188 63.414,71.129 63.218,71.159 70.266 C 71.188 77.414,71.081 77.821,69.166 77.821 C 65.311 77.821,55.224 84.351,52.335 88.717 C 52.012 89.206,51.661 89.605,51.555 89.605 C 51.449 89.605,51.362 89.743,51.362 89.912 C 51.362 90.080,51.201 90.352,51.003 90.515 C 50.806 90.679,50.431 91.231,50.170 91.743 C 48.739 94.543,48.267 95.563,48.123 96.165 C 48.035 96.531,47.789 97.182,47.575 97.610 C 47.362 98.038,47.076 99.106,46.940 99.985 C 46.804 100.863,46.587 101.862,46.456 102.205 C 46.117 103.097,45.948 108.593,46.211 110.172 C 47.054 115.228,47.673 117.383,49.051 120.067 C 49.459 120.862,49.957 121.887,50.157 122.346 C 50.357 122.804,50.598 123.180,50.692 123.180 C 50.786 123.180,50.988 123.480,51.140 123.847 C 51.291 124.213,51.487 124.514,51.573 124.514 C 51.660 124.514,52.037 124.939,52.411 125.459 C 53.947 127.592,57.579 131.040,59.144 131.850 C 59.450 132.009,59.780 132.274,59.878 132.439 C 59.975 132.605,60.197 132.740,60.370 132.740 C 60.543 132.740,61.158 133.041,61.737 133.407 C 62.315 133.774,62.899 134.074,63.034 134.074 C 63.169 134.074,63.402 134.197,63.551 134.346 C 63.943 134.738,66.914 135.747,69.398 136.332 C 69.841 136.437,70.466 136.729,70.788 136.982 L 71.373 137.442 71.373 144.205 L 71.373 150.967 70.493 151.523 C 70.009 151.828,69.133 152.185,68.547 152.316 C 67.961 152.447,67.151 152.748,66.747 152.986 C 66.342 153.224,65.874 153.419,65.706 153.419 C 65.539 153.419,65.264 153.556,65.097 153.723 C 64.929 153.891,64.447 154.205,64.025 154.421 C 62.390 155.257,58.646 158.654,57.531 160.311 C 57.326 160.617,56.876 161.267,56.532 161.757 C 53.084 166.659,52.023 175.122,54.079 181.323 C 54.705 183.212,55.757 185.636,56.056 185.881 C 56.130 185.942,56.360 186.292,56.565 186.659 C 58.145 189.477,61.824 192.905,65.036 194.554 C 65.525 194.805,66.076 195.105,66.259 195.219 C 66.996 195.679,69.636 196.584,70.792 196.772 C 71.467 196.882,72.249 197.103,72.530 197.263 C 73.242 197.669,79.065 197.669,79.777 197.263 C 80.058 197.103,80.856 196.879,81.551 196.766 C 82.679 196.582,85.155 195.723,86.048 195.204 C 86.231 195.098,86.782 194.805,87.271 194.554 C 88.495 193.926,88.974 193.634,89.832 192.992 C 90.764 192.296,93.248 190.054,93.352 189.815 C 93.395 189.717,93.599 189.466,93.805 189.259 C 94.672 188.389,96.397 185.885,96.616 185.181 C 96.706 184.894,96.954 184.408,97.169 184.102 C 97.384 183.797,97.665 183.196,97.793 182.768 C 97.922 182.340,98.182 181.567,98.371 181.051 C 99.406 178.226,99.568 172.776,98.731 168.945 C 98.149 166.279,96.685 162.707,95.913 162.066 C 95.746 161.927,95.609 161.697,95.609 161.555 C 95.609 160.562,90.145 155.286,88.052 154.257 C 87.623 154.046,87.121 153.779,86.937 153.664 C 86.019 153.089,84.285 152.352,83.517 152.212 C 83.043 152.125,82.266 151.808,81.791 151.508 L 80.927 150.963 80.986 144.140 L 81.045 137.316 81.773 136.826 C 82.173 136.556,82.924 136.273,83.440 136.196 C 85.167 135.941,89.249 134.249,91.495 132.858 C 91.984 132.555,92.680 132.142,93.040 131.940 C 94.068 131.363,96.246 129.505,97.891 127.802 C 99.576 126.057,100.297 125.907,101.393 127.074 C 101.678 127.378,102.000 127.626,102.108 127.626 C 102.291 127.626,103.771 128.712,104.457 129.350 C 104.622 129.503,104.842 129.628,104.947 129.628 C 105.052 129.628,105.303 129.792,105.504 129.994 C 105.705 130.195,106.531 130.794,107.339 131.325 C 108.147 131.856,108.865 132.366,108.934 132.459 C 109.004 132.553,109.361 132.783,109.728 132.971 C 110.901 133.572,111.009 134.131,110.508 136.995 C 109.823 140.911,110.194 145.156,111.510 148.445 C 111.814 149.204,112.062 149.971,112.062 150.150 C 112.062 150.328,112.212 150.598,112.396 150.750 C 112.579 150.903,112.729 151.150,112.729 151.301 C 112.729 152.342,117.068 157.548,119.267 159.145 C 119.890 159.598,120.532 160.096,120.694 160.251 C 120.856 160.407,121.119 160.534,121.278 160.534 C 121.438 160.534,121.689 160.678,121.836 160.855 C 121.983 161.032,122.570 161.350,123.141 161.560 C 123.713 161.771,124.338 162.076,124.531 162.239 C 124.724 162.402,125.051 162.535,125.258 162.535 C 125.465 162.535,126.357 162.796,127.242 163.116 C 129.341 163.875,135.247 164.131,137.632 163.567 C 140.100 162.983,142.020 162.415,142.334 162.175 C 142.499 162.048,143.102 161.772,143.673 161.561 C 144.245 161.350,144.832 161.032,144.979 160.855 C 145.126 160.678,145.368 160.534,145.518 160.534 C 145.667 160.534,146.080 160.284,146.436 159.978 C 146.791 159.672,147.177 159.422,147.295 159.422 C 148.154 159.421,153.532 152.899,154.142 151.117 C 154.274 150.732,154.514 150.211,154.675 149.960 C 156.686 146.834,157.100 137.991,155.452 133.352 C 153.818 128.751,150.565 124.347,147.023 121.937 C 146.322 121.460,145.615 120.944,145.454 120.790 C 145.292 120.637,145.040 120.511,144.894 120.511 C 144.748 120.511,144.267 120.266,143.827 119.967 C 143.386 119.667,142.737 119.355,142.385 119.273 C 142.033 119.191,141.526 118.988,141.258 118.821 C 140.990 118.654,139.940 118.366,138.924 118.182 C 137.907 117.998,136.676 117.749,136.187 117.628 C 134.888 117.308,131.751 117.351,130.198 117.710 C 129.456 117.882,128.249 118.138,127.515 118.280 C 126.782 118.421,125.831 118.693,125.403 118.884 C 121.919 120.439,119.201 122.119,117.732 123.628 C 116.353 125.043,115.621 125.290,114.515 124.714 C 114.022 124.457,113.619 124.172,113.619 124.082 C 113.619 123.992,113.394 123.800,113.118 123.656 C 112.843 123.512,112.218 123.092,111.729 122.723 C 111.240 122.354,110.489 121.806,110.061 121.505 C 109.633 121.204,108.969 120.732,108.585 120.457 C 108.202 120.181,107.224 119.505,106.413 118.955 C 104.580 117.711,104.561 117.632,105.294 114.264 C 106.628 108.140,106.631 106.063,105.317 99.984 C 104.638 96.843,104.688 96.632,106.394 95.465 C 107.084 94.994,107.987 94.358,108.401 94.052 C 108.815 93.747,109.512 93.246,109.950 92.941 C 110.388 92.635,111.083 92.135,111.493 91.829 C 112.874 90.801,113.425 90.410,113.827 90.174 C 114.047 90.045,114.502 89.744,114.839 89.507 C 115.600 88.969,116.056 89.194,118.550 91.337 C 120.649 93.140,120.523 93.046,121.577 93.584 C 122.075 93.838,122.540 94.140,122.611 94.254 C 122.682 94.369,123.064 94.532,123.460 94.616 C 123.856 94.700,124.330 94.891,124.514 95.040 C 124.897 95.351,127.659 96.219,129.294 96.542 C 132.612 97.197,140.161 96.376,142.079 95.152 C 142.262 95.035,142.563 94.885,142.746 94.820 C 146.475 93.494,154.086 86.376,154.086 84.214 C 154.086 84.094,154.286 83.632,154.531 83.188 C 155.030 82.282,155.769 80.222,156.138 78.710 C 156.454 77.412,156.454 69.780,156.138 68.482 C 155.470 65.746,153.484 61.401,152.408 60.325 C 152.230 60.147,152.084 59.931,152.084 59.845 C 152.084 59.695,151.486 58.976,150.081 57.437 C 149.301 56.583,146.792 54.475,146.556 54.475 C 146.463 54.475,146.193 54.295,145.956 54.075 C 145.527 53.676,142.763 52.251,142.419 52.251 C 142.320 52.251,141.828 52.060,141.325 51.827 C 137.203 49.913,129.043 49.921,125.406 51.842 C 124.980 52.067,124.511 52.251,124.364 52.251 C 124.029 52.251,121.502 53.544,120.669 54.141 C 118.756 55.513,116.064 57.849,116.064 58.137 C 116.064 58.176,115.753 58.541,115.371 58.950 C 114.577 59.800,113.238 61.832,112.826 62.813 C 112.672 63.180,112.475 63.551,112.388 63.637 C 112.201 63.823,111.240 66.477,110.956 67.593 C 110.040 71.190,109.874 73.840,110.395 76.562 C 110.578 77.521,110.728 78.841,110.728 79.496 L 110.728 80.687 109.450 81.581 C 108.747 82.073,108.013 82.629,107.819 82.816 C 107.625 83.004,107.392 83.157,107.300 83.157 C 107.108 83.157,105.282 84.413,104.635 84.989 C 104.397 85.202,104.019 85.434,103.796 85.504 C 103.573 85.575,103.391 85.730,103.391 85.847 C 103.391 85.965,103.216 86.127,103.002 86.207 C 102.788 86.286,102.254 86.637,101.815 86.986 C 100.198 88.273,99.751 88.152,97.359 85.780 C 95.499 83.934,94.233 82.978,90.555 80.642 C 90.038 80.313,89.544 80.044,89.458 80.044 C 89.372 80.044,88.894 79.851,88.397 79.614 C 87.171 79.031,85.040 78.284,83.824 78.012 C 80.498 77.267,80.712 77.791,80.712 70.380 C 80.712 63.203,80.605 63.478,83.670 62.728 C 84.258 62.584,85.107 62.269,85.557 62.028 C 86.007 61.787,86.462 61.590,86.568 61.590 C 86.675 61.590,87.059 61.340,87.422 61.034 C 87.786 60.728,88.270 60.478,88.500 60.478 C 88.729 60.478,88.996 60.345,89.094 60.183 C 89.192 60.020,89.590 59.703,89.979 59.477 C 91.983 58.313,95.760 53.671,97.122 50.695 C 98.349 48.016,98.502 47.564,98.878 45.513 C 99.996 39.404,98.795 32.873,95.706 28.264 C 95.347 27.727,94.889 27.043,94.688 26.742 C 93.781 25.385,89.468 21.345,88.926 21.345 C 88.828 21.345,88.616 21.217,88.454 21.060 C 88.097 20.714,84.889 19.122,84.548 19.122 C 84.415 19.122,84.022 18.979,83.676 18.806 C 81.891 17.909,76.619 17.073,74.486 17.349 M78.524 29.439 C 81.234 29.958,83.957 31.715,85.622 34.019 C 88.422 37.893,88.366 43.938,85.496 47.679 C 84.402 49.105,81.690 51.362,81.071 51.362 C 80.950 51.362,80.395 51.583,79.838 51.853 C 78.236 52.628,74.020 52.568,72.114 51.743 C 58.898 46.021,64.438 26.744,78.524 29.439 M135.456 62.118 C 135.980 62.286,136.882 62.549,137.461 62.702 C 138.040 62.854,138.627 63.117,138.767 63.285 C 138.906 63.453,139.133 63.592,139.271 63.593 C 140.216 63.601,142.849 66.553,144.029 68.927 L 144.858 70.595 144.858 73.596 C 144.858 76.279,144.805 76.699,144.358 77.550 C 144.083 78.073,143.858 78.607,143.858 78.736 C 143.858 79.862,139.239 84.269,138.060 84.269 C 137.934 84.269,137.360 84.483,136.786 84.745 C 135.265 85.438,131.541 85.442,129.988 84.751 C 129.392 84.486,128.797 84.269,128.666 84.269 C 128.386 84.269,127.009 83.370,125.685 82.323 C 124.854 81.665,124.247 80.871,122.883 78.659 C 121.122 75.805,121.773 68.739,123.965 66.920 C 124.144 66.771,124.291 66.527,124.291 66.377 C 124.291 65.603,128.188 62.867,129.691 62.585 C 130.135 62.501,130.878 62.298,131.341 62.132 C 132.441 61.740,134.260 61.734,135.456 62.118 M78.912 91.165 C 80.306 91.409,81.566 91.707,81.710 91.827 C 81.855 91.947,82.365 92.184,82.845 92.353 C 84.638 92.986,89.605 97.219,89.605 98.115 C 89.605 98.289,89.805 98.611,90.050 98.833 C 90.295 99.054,90.498 99.345,90.502 99.479 C 90.505 99.613,90.746 100.206,91.036 100.798 C 91.326 101.390,91.790 103.051,92.067 104.490 L 92.571 107.106 92.081 109.640 C 91.264 113.859,89.602 116.762,86.473 119.438 C 85.317 120.427,85.207 120.498,83.133 121.600 C 76.557 125.096,66.072 122.259,62.678 116.064 C 62.444 115.636,62.159 115.136,62.046 114.953 C 59.866 111.436,59.402 104.612,61.111 101.224 C 61.343 100.765,61.605 100.155,61.694 99.868 C 62.165 98.347,66.104 94.002,67.558 93.400 C 67.944 93.240,68.260 93.021,68.260 92.914 C 68.260 92.806,68.366 92.718,68.496 92.718 C 68.626 92.718,69.301 92.448,69.997 92.118 C 71.078 91.605,74.484 90.816,75.931 90.744 C 76.176 90.732,77.517 90.921,78.912 91.165 M136.326 129.480 C 139.272 130.183,143.858 133.938,143.858 135.646 C 143.858 135.753,144.083 136.268,144.358 136.791 C 144.805 137.642,144.858 138.062,144.858 140.745 C 144.858 143.427,144.805 143.848,144.358 144.698 C 144.083 145.222,143.858 145.772,143.857 145.921 C 143.857 146.070,143.607 146.483,143.302 146.838 C 142.996 147.194,142.746 147.554,142.746 147.638 C 142.746 147.872,140.452 150.072,139.839 150.426 C 136.422 152.398,131.968 152.937,129.352 151.695 C 128.773 151.420,128.246 151.195,128.182 151.195 C 127.555 151.195,124.688 148.634,123.827 147.304 C 122.645 145.479,122.500 145.167,122.155 143.695 C 121.150 139.417,122.210 135.529,125.181 132.597 C 127.108 130.694,128.341 129.973,130.402 129.541 C 131.213 129.371,131.945 129.163,132.028 129.080 C 132.253 128.855,134.638 129.077,136.326 129.480 M80.600 163.420 C 81.456 163.816,82.190 164.229,82.231 164.338 C 82.272 164.447,82.429 164.536,82.581 164.536 C 83.301 164.536,85.528 167.087,86.765 169.330 L 87.493 170.650 87.490 174.208 L 87.487 177.765 86.770 179.061 C 84.695 182.811,82.215 184.779,78.626 185.521 C 75.178 186.234,71.421 185.414,69.083 183.439 C 67.360 181.984,66.612 181.030,65.320 178.645 C 64.268 176.702,64.379 171.674,65.525 169.368 C 66.405 167.597,69.055 164.536,69.708 164.536 C 69.802 164.536,69.990 164.403,70.126 164.242 C 70.360 163.962,72.756 162.912,73.708 162.672 C 75.221 162.290,79.060 162.707,80.600 163.420 " stroke="none" fill="#080808" fill-rule="evenodd"></path><path id="path1" d="M0.000 111.173 L 0.000 222.346 200.000 222.346 L 400.000 222.346 400.000 111.173 L 400.000 0.000 200.000 0.000 L 0.000 0.000 0.000 111.173 M81.156 17.232 C 81.707 17.436,82.607 17.685,83.157 17.786 C 84.019 17.944,85.828 18.701,86.937 19.367 C 87.121 19.477,87.521 19.674,87.827 19.805 C 88.705 20.180,90.717 21.570,90.717 21.802 C 90.717 21.918,90.849 22.012,91.010 22.012 C 91.172 22.012,91.517 22.237,91.778 22.513 C 92.277 23.040,92.641 23.404,93.118 23.853 C 93.575 24.283,93.897 24.628,94.564 25.403 C 94.906 25.800,95.318 26.276,95.480 26.459 C 95.641 26.643,95.943 27.093,96.151 27.460 C 96.359 27.827,96.770 28.527,97.065 29.016 C 97.360 29.505,97.711 30.156,97.846 30.461 C 97.981 30.767,98.328 31.518,98.618 32.129 C 98.907 32.740,99.205 33.741,99.279 34.352 C 99.353 34.964,99.583 35.814,99.790 36.242 C 100.344 37.389,100.342 44.239,99.787 45.319 C 99.578 45.725,99.340 46.653,99.257 47.383 C 99.174 48.121,98.929 48.935,98.706 49.219 C 98.485 49.500,98.233 50.022,98.146 50.379 C 98.058 50.736,97.802 51.267,97.576 51.559 C 97.350 51.850,97.165 52.218,97.165 52.375 C 97.165 52.533,96.915 52.959,96.609 53.322 C 96.304 53.686,96.053 54.043,96.053 54.116 C 96.053 54.731,90.977 60.033,90.389 60.033 C 90.229 60.033,90.041 60.180,89.972 60.360 C 89.903 60.539,89.517 60.844,89.115 61.037 C 88.712 61.229,87.882 61.677,87.271 62.032 C 85.908 62.822,85.964 62.796,84.603 63.258 C 83.991 63.466,83.017 63.801,82.438 64.002 L 81.384 64.369 81.382 70.266 L 81.379 76.163 82.324 76.652 C 82.843 76.922,83.869 77.255,84.603 77.393 C 85.336 77.531,86.249 77.834,86.630 78.066 C 87.011 78.298,87.479 78.488,87.668 78.488 C 87.993 78.488,91.144 79.985,91.384 80.254 C 91.445 80.322,91.753 80.528,92.068 80.712 C 93.533 81.564,94.187 82.006,95.364 82.935 C 97.043 84.260,99.166 86.350,99.166 86.676 C 99.166 86.832,99.524 86.937,100.056 86.937 C 100.545 86.937,100.945 86.845,100.945 86.733 C 100.945 86.621,101.320 86.301,101.779 86.023 C 102.237 85.744,102.693 85.386,102.790 85.226 C 102.888 85.067,103.109 84.936,103.282 84.936 C 103.455 84.936,103.775 84.750,103.994 84.523 C 104.212 84.297,104.942 83.748,105.614 83.304 C 106.287 82.860,106.996 82.345,107.189 82.160 C 107.383 81.975,107.655 81.823,107.793 81.823 C 107.931 81.823,108.386 81.523,108.804 81.156 C 109.222 80.789,109.674 80.489,109.808 80.489 C 110.291 80.489,110.363 79.348,109.926 78.626 C 109.339 77.657,109.286 69.354,109.862 68.473 C 110.058 68.172,110.292 67.426,110.382 66.815 C 110.471 66.203,110.723 65.403,110.941 65.036 C 111.160 64.669,111.407 64.077,111.492 63.720 C 111.576 63.362,111.839 62.824,112.076 62.522 C 112.313 62.221,112.507 61.852,112.507 61.702 C 112.507 61.551,112.804 61.040,113.166 60.564 C 113.529 60.089,114.004 59.453,114.222 59.151 C 114.573 58.667,117.626 55.561,118.852 54.443 C 119.101 54.216,119.421 54.030,119.563 54.030 C 119.706 54.030,119.902 53.897,120.000 53.735 C 120.167 53.458,121.339 52.801,123.977 51.506 C 124.599 51.201,125.499 50.882,125.978 50.798 C 126.457 50.714,127.078 50.501,127.359 50.324 C 128.742 49.456,138.081 49.463,139.469 50.333 C 139.743 50.505,140.362 50.715,140.845 50.800 C 141.329 50.885,142.178 51.196,142.734 51.492 C 143.289 51.787,143.886 52.029,144.061 52.029 C 144.236 52.029,144.555 52.188,144.770 52.383 C 144.985 52.578,145.458 52.903,145.821 53.106 C 148.425 54.560,153.641 59.719,153.641 60.840 C 153.641 61.008,153.726 61.145,153.829 61.145 C 154.019 61.145,155.642 64.262,155.642 64.626 C 155.642 64.733,155.846 65.200,156.095 65.665 C 156.343 66.129,156.634 67.178,156.740 67.996 C 156.845 68.814,157.053 69.783,157.202 70.150 C 157.611 71.163,157.545 76.138,157.106 77.349 C 156.912 77.884,156.749 78.684,156.744 79.127 C 156.739 79.571,156.599 80.283,156.433 80.712 C 155.530 83.048,155.140 83.945,154.985 84.046 C 154.890 84.107,154.737 84.408,154.646 84.714 C 154.554 85.019,154.240 85.588,153.949 85.977 C 153.657 86.367,153.419 86.748,153.419 86.824 C 153.419 87.332,148.378 92.718,147.903 92.718 C 147.778 92.718,147.442 92.922,147.156 93.172 C 146.152 94.049,142.507 96.053,141.916 96.053 C 141.751 96.053,141.219 96.256,140.733 96.504 C 140.206 96.773,139.021 97.045,137.796 97.180 C 136.666 97.303,135.242 97.476,134.630 97.563 C 134.019 97.651,132.968 97.650,132.296 97.561 C 131.623 97.472,130.164 97.308,129.054 97.195 C 127.788 97.067,126.693 96.816,126.117 96.522 C 125.612 96.264,125.064 96.053,124.899 96.053 C 124.381 96.053,120.645 94.048,119.852 93.345 C 119.673 93.186,119.194 92.830,118.788 92.555 C 118.382 92.279,117.828 91.845,117.558 91.588 C 115.909 90.030,115.485 89.807,115.059 90.277 C 114.841 90.519,114.539 90.717,114.390 90.717 C 114.240 90.717,114.003 90.856,113.862 91.025 C 113.722 91.194,112.898 91.820,112.032 92.415 C 111.166 93.010,110.180 93.696,109.841 93.941 C 109.501 94.186,108.637 94.782,107.919 95.266 C 105.384 96.977,105.196 97.421,106.070 99.638 C 107.161 102.407,107.163 111.707,106.073 114.472 C 105.356 116.290,105.444 117.472,106.337 118.023 C 106.734 118.268,107.710 118.930,108.505 119.493 C 109.300 120.056,110.623 120.978,111.445 121.540 C 112.267 122.103,113.055 122.702,113.195 122.872 C 113.336 123.041,113.584 123.180,113.746 123.180 C 113.908 123.180,114.121 123.315,114.219 123.481 C 114.867 124.578,116.036 124.408,117.272 123.037 C 117.752 122.504,118.274 122.068,118.431 122.068 C 118.588 122.068,118.824 121.868,118.955 121.623 C 119.086 121.379,119.301 121.178,119.434 121.178 C 119.566 121.178,120.016 120.878,120.434 120.511 C 120.852 120.145,121.380 119.844,121.607 119.844 C 121.834 119.844,122.071 119.713,122.132 119.553 C 122.194 119.393,122.670 119.134,123.192 118.978 C 123.713 118.821,124.267 118.567,124.422 118.412 C 124.577 118.257,125.302 118.012,126.034 117.868 C 126.766 117.724,127.699 117.434,128.107 117.224 C 129.330 116.595,137.325 116.664,138.855 117.317 C 139.466 117.577,140.441 117.859,141.020 117.941 C 141.600 118.024,142.203 118.221,142.360 118.379 C 142.518 118.536,143.045 118.792,143.530 118.946 C 144.016 119.100,144.514 119.351,144.637 119.503 C 144.760 119.655,145.110 119.858,145.415 119.954 C 145.720 120.049,146.253 120.364,146.598 120.653 C 146.944 120.942,147.311 121.178,147.415 121.178 C 147.996 121.178,153.641 127.338,153.641 127.972 C 153.641 128.123,153.785 128.301,153.962 128.369 C 154.139 128.437,154.405 128.898,154.553 129.393 C 154.702 129.889,154.899 130.295,154.992 130.295 C 155.085 130.295,155.335 130.820,155.547 131.462 C 155.759 132.104,156.068 132.838,156.233 133.093 C 156.399 133.348,156.624 134.248,156.733 135.094 C 156.842 135.940,157.053 136.932,157.202 137.298 C 157.557 138.177,157.554 143.300,157.198 144.191 C 157.052 144.558,156.843 145.545,156.735 146.384 C 156.626 147.222,156.347 148.223,156.114 148.607 C 155.881 148.991,155.623 149.623,155.541 150.012 C 155.458 150.401,155.254 150.834,155.086 150.973 C 154.918 151.112,154.722 151.497,154.649 151.829 C 154.576 152.161,154.269 152.720,153.967 153.071 C 153.666 153.423,153.419 153.844,153.419 154.007 C 153.419 154.171,153.218 154.429,152.974 154.582 C 152.729 154.735,152.529 154.988,152.529 155.144 C 152.529 155.552,148.291 159.774,147.693 159.962 C 147.418 160.048,147.193 160.214,147.193 160.330 C 147.193 160.446,146.843 160.708,146.415 160.912 C 145.987 161.116,145.636 161.357,145.636 161.447 C 145.636 161.537,145.261 161.733,144.803 161.883 C 144.344 162.032,143.745 162.329,143.471 162.542 C 143.196 162.755,142.606 162.998,142.160 163.082 C 141.713 163.166,141.136 163.371,140.879 163.538 C 140.622 163.705,139.511 163.995,138.410 164.181 C 137.310 164.367,135.734 164.644,134.908 164.795 C 133.720 165.013,133.095 165.014,131.907 164.799 C 131.081 164.649,129.506 164.374,128.407 164.188 C 127.307 164.002,126.206 163.719,125.961 163.559 C 125.715 163.400,125.149 163.201,124.703 163.118 C 124.257 163.035,123.656 162.785,123.369 162.561 C 123.081 162.338,122.471 162.032,122.012 161.883 C 121.554 161.733,121.178 161.535,121.178 161.441 C 121.178 161.348,120.921 161.155,120.606 161.011 C 118.794 160.186,113.396 154.847,113.396 153.880 C 113.396 153.749,113.298 153.641,113.177 153.641 C 113.056 153.641,112.802 153.269,112.613 152.815 C 112.423 152.361,112.129 151.836,111.960 151.648 C 111.791 151.460,111.582 151.006,111.497 150.639 C 111.412 150.272,111.198 149.741,111.021 149.457 C 110.844 149.174,110.563 148.293,110.397 147.499 C 110.231 146.706,109.962 145.896,109.800 145.701 C 109.303 145.102,109.384 136.575,109.894 135.796 C 110.543 134.805,110.166 133.986,108.717 133.237 C 108.417 133.082,107.771 132.651,107.282 132.280 C 106.793 131.908,106.067 131.400,105.670 131.150 C 105.272 130.900,104.947 130.605,104.947 130.495 C 104.947 130.385,104.822 130.294,104.669 130.292 C 104.413 130.290,102.927 129.247,102.001 128.419 C 101.787 128.228,101.560 128.071,101.496 128.071 C 101.432 128.071,100.965 127.797,100.458 127.461 C 99.747 126.990,99.512 126.922,99.432 127.161 C 99.314 127.516,97.042 129.785,95.587 131.002 C 94.741 131.709,93.895 132.305,91.931 133.579 C 91.691 133.734,91.147 134.020,90.721 134.215 C 90.295 134.409,89.706 134.757,89.412 134.989 C 89.119 135.220,88.664 135.409,88.402 135.409 C 88.140 135.409,87.728 135.546,87.487 135.714 C 87.246 135.883,86.348 136.225,85.492 136.475 C 84.636 136.725,83.459 137.100,82.876 137.308 L 81.817 137.687 81.876 144.139 C 81.925 149.612,81.985 150.616,82.268 150.756 C 83.480 151.353,84.704 151.840,85.323 151.969 C 85.719 152.051,86.098 152.208,86.166 152.318 C 86.233 152.427,86.710 152.724,87.224 152.979 C 89.050 153.880,90.682 154.946,91.629 155.856 C 91.825 156.044,92.375 156.558,92.852 156.999 C 93.329 157.439,94.019 158.172,94.386 158.627 C 94.753 159.082,95.278 159.722,95.553 160.049 C 95.828 160.377,96.053 160.754,96.053 160.888 C 96.053 161.022,96.250 161.309,96.490 161.527 C 96.730 161.744,97.038 162.260,97.174 162.673 C 97.310 163.086,97.506 163.424,97.610 163.424 C 97.713 163.424,97.918 163.799,98.064 164.258 C 98.211 164.717,98.506 165.392,98.721 165.759 C 98.935 166.126,99.176 166.945,99.256 167.580 C 99.335 168.215,99.559 169.115,99.754 169.580 C 100.457 171.264,100.351 178.642,99.617 179.096 C 99.520 179.156,99.372 179.781,99.288 180.486 C 99.204 181.191,98.892 182.241,98.595 182.820 C 98.298 183.398,98.054 184.024,98.054 184.209 C 98.054 184.395,97.854 184.747,97.610 184.992 C 97.365 185.236,97.163 185.561,97.161 185.714 C 97.156 186.055,96.009 187.828,95.393 188.446 C 95.145 188.695,94.942 188.979,94.942 189.077 C 94.942 189.277,91.508 192.666,90.687 193.276 C 90.398 193.491,89.861 193.903,89.494 194.191 C 89.127 194.478,88.577 194.789,88.271 194.881 C 87.966 194.973,87.515 195.230,87.271 195.451 C 87.026 195.672,86.526 195.925,86.159 196.011 C 85.792 196.098,85.338 196.302,85.149 196.465 C 84.961 196.628,84.151 196.913,83.350 197.099 C 82.549 197.285,81.530 197.588,81.087 197.773 C 79.920 198.261,72.379 198.258,71.209 197.769 C 70.760 197.581,69.719 197.275,68.897 197.087 C 68.074 196.900,67.282 196.604,67.137 196.428 C 66.991 196.253,66.740 196.109,66.579 196.109 C 65.991 196.109,62.782 194.304,61.590 193.303 C 60.904 192.727,57.239 189.009,56.867 188.511 C 55.699 186.949,55.142 186.074,55.142 185.802 C 55.142 185.634,54.951 185.254,54.718 184.958 C 54.486 184.662,54.177 183.982,54.033 183.448 C 53.889 182.913,53.637 182.266,53.472 182.010 C 53.307 181.754,53.064 180.945,52.931 180.211 C 52.798 179.477,52.545 178.477,52.369 177.988 C 51.927 176.761,51.914 171.784,52.350 170.491 C 52.527 169.967,52.822 168.813,53.005 167.925 C 53.189 167.038,53.495 166.090,53.685 165.819 C 53.875 165.548,54.030 165.112,54.030 164.850 C 54.030 164.588,54.216 164.135,54.444 163.843 C 54.672 163.552,54.936 163.063,55.031 162.757 C 55.126 162.451,55.398 161.951,55.634 161.645 C 55.871 161.340,56.632 160.333,57.326 159.408 C 58.020 158.483,59.038 157.333,59.589 156.851 C 60.139 156.370,60.689 155.870,60.812 155.741 C 61.470 155.044,63.314 153.852,65.083 152.979 C 65.597 152.724,66.074 152.427,66.141 152.318 C 66.209 152.208,66.588 152.051,66.984 151.969 C 67.603 151.840,68.827 151.353,70.039 150.756 C 70.322 150.616,70.381 149.612,70.431 144.139 L 70.490 137.687 69.431 137.310 C 68.848 137.103,67.682 136.736,66.839 136.494 C 65.995 136.253,65.098 135.910,64.844 135.732 C 64.589 135.554,64.167 135.409,63.905 135.409 C 63.643 135.409,63.188 135.220,62.895 134.989 C 62.601 134.757,62.012 134.402,61.586 134.198 C 60.305 133.586,59.436 133.064,59.041 132.669 C 58.836 132.464,58.587 132.296,58.489 132.296 C 58.011 132.296,54.947 129.514,52.918 127.237 C 51.244 125.359,50.881 124.892,50.678 124.359 C 50.571 124.077,50.388 123.847,50.271 123.847 C 50.154 123.847,49.987 123.621,49.900 123.346 C 49.813 123.071,49.506 122.536,49.218 122.158 C 48.929 121.780,48.694 121.317,48.694 121.129 C 48.694 120.942,48.544 120.664,48.361 120.512 C 48.178 120.360,47.917 119.823,47.781 119.318 C 47.645 118.812,47.353 118.049,47.132 117.621 C 46.911 117.193,46.663 116.442,46.580 115.953 C 46.497 115.464,46.223 114.514,45.971 113.841 C 45.268 111.965,45.266 102.426,45.967 100.278 C 46.227 99.483,46.507 98.482,46.590 98.054 C 46.673 97.626,46.917 96.976,47.132 96.609 C 47.347 96.242,47.586 95.609,47.662 95.201 C 47.738 94.793,48.002 94.177,48.247 93.832 C 48.493 93.488,48.694 93.053,48.694 92.866 C 48.694 92.680,48.831 92.390,48.998 92.223 C 49.166 92.055,49.480 91.573,49.696 91.151 C 49.911 90.729,50.225 90.304,50.391 90.206 C 50.558 90.108,50.695 89.925,50.695 89.800 C 50.695 89.130,54.952 84.417,56.802 83.037 C 57.287 82.675,57.862 82.204,58.080 81.990 C 58.299 81.776,58.615 81.601,58.783 81.601 C 58.952 81.601,59.227 81.435,59.395 81.233 C 59.563 81.031,60.000 80.725,60.367 80.554 C 60.734 80.383,61.734 79.854,62.590 79.379 C 63.446 78.905,64.298 78.510,64.484 78.502 C 64.669 78.494,65.186 78.292,65.634 78.052 C 66.081 77.812,67.120 77.492,67.942 77.340 C 70.357 76.896,70.261 77.186,70.261 70.275 L 70.260 64.369 69.075 63.750 C 68.422 63.409,67.527 63.071,67.084 62.999 C 66.641 62.928,66.108 62.681,65.901 62.452 C 65.693 62.222,65.363 62.033,65.168 62.030 C 63.909 62.016,58.873 57.769,56.918 55.072 C 56.491 54.484,55.931 53.733,55.672 53.405 C 55.414 53.076,55.125 52.557,55.030 52.251 C 54.936 51.946,54.672 51.457,54.444 51.165 C 54.216 50.873,54.030 50.385,54.030 50.080 C 54.030 49.774,53.838 49.212,53.604 48.831 C 53.369 48.450,53.067 47.538,52.933 46.804 C 52.799 46.070,52.545 45.069,52.369 44.580 C 51.855 43.153,51.917 38.428,52.474 36.687 C 52.718 35.921,52.918 35.095,52.918 34.850 C 52.918 34.202,53.403 32.685,53.610 32.685 C 53.708 32.685,53.853 32.310,53.934 31.851 C 54.014 31.392,54.244 30.767,54.444 30.461 C 54.644 30.156,54.910 29.655,55.034 29.350 C 55.375 28.512,56.738 26.459,56.954 26.459 C 57.058 26.459,57.143 26.311,57.143 26.131 C 57.143 25.950,57.389 25.641,57.690 25.444 C 57.991 25.247,58.298 24.894,58.372 24.660 C 58.446 24.427,58.585 24.236,58.680 24.236 C 58.776 24.236,59.494 23.624,60.277 22.876 C 61.744 21.475,64.124 19.789,64.636 19.789 C 64.795 19.789,64.925 19.696,64.925 19.584 C 64.925 19.471,65.300 19.259,65.759 19.112 C 66.217 18.965,66.897 18.662,67.270 18.438 C 67.642 18.213,68.393 17.961,68.937 17.878 C 69.482 17.794,70.206 17.586,70.545 17.414 C 72.133 16.614,79.161 16.493,81.156 17.232 M227.586 24.021 C 229.310 24.827,230.954 26.379,231.698 27.904 L 232.240 29.016 232.299 58.802 C 232.365 92.267,232.218 89.433,233.977 91.168 C 235.482 92.652,235.095 92.600,245.247 92.677 C 257.715 92.772,258.154 92.698,259.839 90.214 L 260.478 89.272 260.589 59.366 C 260.693 31.347,260.725 29.426,261.089 28.911 C 261.304 28.609,261.479 28.200,261.479 28.003 C 261.479 27.154,264.421 24.236,265.277 24.236 C 265.431 24.236,265.750 24.061,265.987 23.847 C 266.621 23.272,289.870 23.244,290.527 23.817 C 290.754 24.014,291.191 24.235,291.498 24.308 C 292.359 24.511,294.326 26.586,295.060 28.065 L 295.720 29.395 295.720 58.600 C 295.720 90.635,295.672 89.489,297.059 90.918 C 298.854 92.768,295.831 92.593,328.293 92.718 C 354.618 92.819,357.268 92.862,357.977 93.198 C 359.979 94.148,361.579 96.046,361.976 97.943 C 362.134 98.701,362.189 113.780,362.149 145.303 L 362.090 191.551 361.552 192.644 C 360.819 194.133,359.476 195.381,357.789 196.141 L 356.379 196.776 279.822 196.776 L 203.265 196.776 201.855 196.141 C 200.168 195.381,198.825 194.133,198.092 192.644 L 197.554 191.551 197.554 110.395 L 197.554 29.238 198.100 28.127 C 198.934 26.426,200.440 24.955,202.223 24.099 L 203.780 23.351 214.962 23.349 L 226.144 23.346 227.586 24.021 M73.287 30.165 C 73.056 30.230,72.556 30.473,72.175 30.705 C 71.795 30.937,71.360 31.127,71.208 31.128 C 70.220 31.131,66.267 35.169,66.254 36.189 C 66.251 36.402,66.063 36.986,65.835 37.488 C 64.766 39.843,65.384 44.915,66.945 46.596 C 67.179 46.848,67.371 47.122,67.371 47.205 C 67.371 47.445,69.630 49.538,70.514 50.117 C 73.461 52.048,79.442 52.106,81.504 50.224 C 81.757 49.994,82.059 49.805,82.176 49.805 C 82.471 49.805,84.936 47.487,84.936 47.209 C 84.936 47.085,85.121 46.817,85.347 46.612 C 85.572 46.408,85.884 45.818,86.039 45.301 C 86.194 44.784,86.459 44.164,86.629 43.921 C 87.058 43.308,87.064 38.304,86.635 37.681 C 86.469 37.440,86.204 36.843,86.046 36.354 C 85.500 34.659,82.159 31.131,81.099 31.128 C 80.947 31.127,80.472 30.905,80.044 30.635 C 79.270 30.146,74.528 29.816,73.287 30.165 M129.961 63.204 C 126.642 64.596,124.954 66.175,123.370 69.372 C 122.345 71.440,122.278 75.720,123.244 77.465 C 123.575 78.064,123.847 78.689,123.847 78.855 C 123.847 80.377,127.996 83.368,131.254 84.194 L 133.437 84.747 135.695 84.152 C 136.938 83.824,138.195 83.366,138.490 83.134 C 138.785 82.902,139.148 82.713,139.297 82.713 C 139.528 82.713,140.145 82.252,141.078 81.381 C 143.491 79.131,145.111 73.421,144.002 71.075 C 143.819 70.689,143.599 70.072,143.513 69.705 C 143.121 68.035,139.629 64.036,138.563 64.036 C 138.395 64.036,137.941 63.811,137.556 63.537 C 136.704 62.930,131.192 62.688,129.961 63.204 M73.901 91.818 C 73.017 91.900,72.062 92.131,71.741 92.341 C 71.425 92.549,70.986 92.718,70.766 92.718 C 70.546 92.718,70.017 92.920,69.591 93.167 C 69.165 93.414,68.491 93.765,68.093 93.948 C 67.696 94.131,67.371 94.373,67.371 94.485 C 67.371 94.597,67.196 94.745,66.982 94.813 C 66.632 94.924,65.237 96.242,63.735 97.881 C 63.430 98.213,63.109 98.713,63.022 98.992 C 62.934 99.271,62.688 99.724,62.474 99.998 C 62.260 100.272,62.016 100.862,61.932 101.309 C 61.848 101.756,61.612 102.378,61.407 102.691 C 60.849 103.542,60.859 110.305,61.420 111.412 C 61.632 111.831,61.907 112.587,62.033 113.092 C 62.158 113.598,62.409 114.136,62.592 114.287 C 62.774 114.439,62.924 114.681,62.924 114.825 C 62.924 115.246,64.245 116.925,65.452 118.039 C 66.064 118.604,66.746 119.241,66.968 119.455 C 67.189 119.669,67.456 119.844,67.560 119.844 C 67.664 119.844,68.189 120.143,68.727 120.507 C 69.265 120.872,69.849 121.172,70.024 121.174 C 70.200 121.177,70.800 121.404,71.358 121.679 C 72.907 122.442,79.332 122.426,81.156 121.654 C 81.829 121.370,82.608 121.047,82.888 120.936 C 83.167 120.826,83.518 120.633,83.666 120.507 C 83.814 120.380,84.401 119.977,84.971 119.609 C 86.124 118.865,89.161 115.745,89.161 115.304 C 89.161 115.149,89.361 114.841,89.605 114.619 C 89.850 114.398,90.051 114.057,90.052 113.862 C 90.053 113.667,90.328 112.957,90.662 112.285 C 91.591 110.417,91.587 103.726,90.656 101.834 C 90.325 101.162,90.053 100.436,90.052 100.222 C 90.051 100.008,89.961 99.833,89.853 99.833 C 89.745 99.833,89.479 99.458,89.262 98.999 C 88.703 97.815,85.409 94.602,83.955 93.822 C 83.578 93.619,82.968 93.289,82.601 93.087 C 82.235 92.886,81.716 92.720,81.450 92.720 C 81.184 92.719,80.806 92.559,80.611 92.364 C 80.310 92.062,76.708 91.536,75.709 91.647 C 75.586 91.661,74.773 91.738,73.901 91.818 M303.096 128.661 C 300.007 129.403,297.328 132.222,296.837 135.248 C 296.546 137.045,296.541 152.554,296.832 154.087 C 297.466 157.432,300.058 160.014,303.428 160.659 C 305.648 161.084,320.397 161.095,322.747 160.674 C 325.252 160.225,327.394 158.507,328.662 155.929 L 329.405 154.419 329.471 145.081 C 329.535 136.029,329.522 135.699,329.060 134.328 C 328.222 131.842,326.053 129.636,323.624 128.799 C 322.032 128.251,305.274 128.138,303.096 128.661 M130.255 130.218 C 129.928 130.275,129.540 130.465,129.394 130.641 C 129.248 130.818,128.961 130.962,128.755 130.962 C 128.311 130.962,125.625 132.872,125.625 133.188 C 125.625 133.309,125.475 133.407,125.292 133.407 C 125.108 133.407,124.958 133.523,124.958 133.664 C 124.958 133.806,124.724 134.231,124.437 134.609 C 122.512 137.150,121.925 142.126,123.250 144.668 C 123.578 145.297,123.847 145.923,123.847 146.058 C 123.847 146.193,124.022 146.498,124.236 146.735 C 124.450 146.972,124.925 147.522,125.292 147.958 C 127.608 150.710,132.807 152.399,135.719 151.345 C 136.221 151.164,136.919 150.950,137.272 150.871 C 137.624 150.792,138.272 150.483,138.713 150.183 C 139.153 149.884,139.589 149.639,139.680 149.639 C 140.451 149.639,143.183 145.908,143.632 144.241 C 143.790 143.657,144.005 143.126,144.111 143.061 C 144.364 142.904,144.359 138.583,144.105 138.426 C 143.997 138.359,143.734 137.658,143.520 136.869 C 143.306 136.079,142.995 135.381,142.828 135.317 C 142.660 135.253,142.524 135.061,142.524 134.890 C 142.524 134.241,139.383 131.407,138.299 131.078 C 137.993 130.985,137.560 130.748,137.335 130.550 C 136.928 130.192,131.798 129.951,130.255 130.218 M73.819 163.521 C 73.513 163.697,72.897 163.905,72.451 163.982 C 72.004 164.060,71.309 164.366,70.907 164.663 C 70.504 164.960,70.088 165.203,69.981 165.203 C 69.745 165.203,67.371 167.553,67.371 167.787 C 67.371 167.878,67.179 168.160,66.945 168.413 C 65.375 170.103,64.756 175.145,65.829 177.508 C 66.060 178.016,66.251 178.653,66.254 178.922 C 66.257 179.191,66.387 179.491,66.542 179.589 C 66.698 179.687,66.986 180.019,67.182 180.328 C 67.863 181.401,70.629 183.880,71.146 183.880 C 71.281 183.880,71.812 184.103,72.327 184.375 C 73.736 185.120,78.633 185.123,79.890 184.380 C 80.356 184.105,80.893 183.880,81.084 183.880 C 81.275 183.880,81.794 183.580,82.239 183.213 C 82.683 182.846,83.321 182.320,83.657 182.045 C 84.313 181.508,86.048 179.054,86.048 178.663 C 86.048 178.533,86.253 178.042,86.505 177.573 C 87.531 175.659,86.793 169.999,85.303 168.353 C 85.101 168.130,84.936 167.874,84.936 167.783 C 84.936 167.503,82.534 165.203,82.241 165.203 C 82.088 165.203,81.757 165.016,81.504 164.787 C 80.204 163.609,75.121 162.772,73.819 163.521 " stroke="none" fill="#fbfbfb" fill-rule="evenodd"></path><path id="path2" d="M203.689 24.363 C 203.150 24.660,202.541 24.903,202.334 24.903 C 202.128 24.903,201.778 25.103,201.556 25.347 C 201.335 25.592,201.017 25.792,200.850 25.792 C 200.683 25.792,200.432 26.042,200.293 26.348 C 200.154 26.654,199.906 26.904,199.742 26.904 C 199.578 26.904,199.444 27.034,199.444 27.194 C 199.444 27.353,199.169 28.028,198.833 28.695 L 198.221 29.906 198.221 110.681 C 198.221 173.681,198.280 191.493,198.491 191.622 C 198.639 191.714,198.917 192.165,199.109 192.624 C 199.301 193.084,199.605 193.517,199.785 193.585 C 199.964 193.654,200.111 193.850,200.111 194.020 C 200.111 194.191,200.198 194.330,200.304 194.330 C 200.409 194.330,200.781 194.555,201.130 194.830 C 202.478 195.893,199.781 195.858,279.822 195.858 C 359.863 195.858,357.166 195.893,358.514 194.830 C 358.863 194.555,359.235 194.330,359.341 194.330 C 359.447 194.330,359.533 194.191,359.533 194.020 C 359.533 193.850,359.680 193.654,359.860 193.585 C 360.039 193.517,360.343 193.084,360.535 192.624 C 360.727 192.165,361.006 191.714,361.154 191.622 C 361.363 191.493,361.423 181.111,361.423 144.904 L 361.423 98.353 360.794 97.111 C 360.095 95.728,358.568 94.206,357.606 93.931 C 357.259 93.832,344.119 93.691,328.405 93.616 C 296.253 93.463,298.598 93.600,296.685 91.771 C 294.693 89.866,294.830 92.214,294.830 60.137 C 294.830 40.286,294.755 31.350,294.576 29.955 L 294.322 27.973 292.808 26.438 C 291.976 25.593,291.104 24.903,290.872 24.903 C 290.640 24.903,289.979 24.653,289.404 24.347 L 288.359 23.791 278.266 23.791 L 268.173 23.791 267.127 24.347 C 266.552 24.653,265.881 24.903,265.635 24.903 C 265.376 24.903,264.569 25.539,263.713 26.416 C 261.554 28.632,261.701 26.234,261.701 59.265 L 261.701 87.684 261.218 89.145 C 260.952 89.948,260.577 90.776,260.384 90.984 C 260.191 91.192,259.913 91.493,259.766 91.651 C 258.964 92.518,257.886 93.038,255.698 93.614 C 255.270 93.727,250.867 93.819,245.914 93.818 L 236.909 93.816 235.798 93.269 C 235.186 92.968,234.586 92.721,234.463 92.720 C 234.187 92.718,233.161 91.644,232.380 90.542 L 231.795 89.717 231.684 59.462 C 231.580 31.040,231.550 29.183,231.184 28.818 C 230.971 28.604,230.729 28.164,230.648 27.841 C 230.493 27.225,229.244 25.792,228.861 25.792 C 228.740 25.792,228.464 25.598,228.249 25.360 C 228.034 25.122,227.552 24.861,227.177 24.778 C 226.803 24.696,226.188 24.441,225.811 24.211 C 225.165 23.817,224.532 23.794,214.897 23.808 L 204.669 23.824 203.689 24.363 M323.879 127.876 C 324.106 128.075,324.666 128.358,325.125 128.505 C 325.584 128.652,325.959 128.904,325.959 129.065 C 325.959 129.226,326.196 129.416,326.485 129.489 C 327.000 129.618,329.072 131.826,329.072 132.246 C 329.072 132.362,329.297 132.744,329.572 133.094 L 330.072 133.730 330.072 144.636 L 330.072 155.542 329.572 156.178 C 329.297 156.528,329.072 156.925,329.071 157.062 C 329.071 157.381,326.808 159.869,326.515 159.872 C 326.392 159.873,326.057 160.123,325.769 160.426 C 325.481 160.730,325.100 160.978,324.923 160.978 C 324.745 160.978,324.157 161.180,323.614 161.428 C 322.665 161.860,322.265 161.874,312.898 161.809 L 303.168 161.741 301.778 161.193 C 300.384 160.644,297.499 158.312,297.499 157.735 C 297.499 157.589,297.354 157.413,297.177 157.345 C 297.000 157.277,296.747 156.791,296.614 156.265 C 296.482 155.739,296.202 155.008,295.991 154.641 C 295.415 153.638,295.407 135.586,295.982 134.709 C 296.187 134.396,296.424 133.770,296.509 133.318 C 296.673 132.443,297.057 131.895,298.532 130.431 C 299.966 129.009,300.602 128.526,301.243 128.374 C 301.568 128.297,301.984 128.106,302.168 127.950 C 302.949 127.286,323.127 127.217,323.879 127.876 " stroke="none" fill="#f46404" fill-rule="evenodd"></path><path id="path3" d="M202.223 24.099 C 200.440 24.955,198.934 26.426,198.100 28.127 L 197.554 29.238 197.554 110.395 L 197.554 191.551 198.092 192.644 C 198.825 194.133,200.168 195.381,201.855 196.141 L 203.265 196.776 279.822 196.776 L 356.379 196.776 357.789 196.141 C 359.476 195.381,360.819 194.133,361.552 192.644 L 362.090 191.551 362.149 145.303 C 362.189 113.780,362.134 98.701,361.976 97.943 C 361.579 96.046,359.979 94.148,357.977 93.198 C 357.268 92.862,354.618 92.819,328.293 92.718 C 295.831 92.593,298.854 92.768,297.059 90.918 C 295.672 89.489,295.720 90.635,295.720 58.600 L 295.720 29.395 295.060 28.065 C 294.326 26.586,292.359 24.511,291.498 24.308 C 291.191 24.235,290.754 24.014,290.527 23.817 C 289.870 23.244,266.621 23.272,265.987 23.847 C 265.750 24.061,265.431 24.236,265.277 24.236 C 264.421 24.236,261.479 27.154,261.479 28.003 C 261.479 28.200,261.304 28.609,261.089 28.911 C 260.725 29.426,260.693 31.347,260.589 59.366 L 260.478 89.272 259.839 90.214 C 258.154 92.698,257.715 92.772,245.247 92.677 C 235.095 92.600,235.482 92.652,233.977 91.168 C 232.218 89.433,232.365 92.267,232.299 58.802 L 232.240 29.016 231.698 27.904 C 230.954 26.379,229.310 24.827,227.586 24.021 L 226.144 23.346 214.962 23.349 L 203.780 23.351 202.223 24.099 M225.811 24.211 C 226.188 24.441,226.803 24.696,227.177 24.778 C 227.552 24.861,228.034 25.122,228.249 25.360 C 228.464 25.598,228.740 25.792,228.861 25.792 C 229.244 25.792,230.493 27.225,230.648 27.841 C 230.729 28.164,230.971 28.604,231.184 28.818 C 231.550 29.183,231.580 31.040,231.684 59.462 L 231.795 89.717 232.380 90.542 C 233.161 91.644,234.187 92.718,234.463 92.720 C 234.586 92.721,235.186 92.968,235.798 93.269 L 236.909 93.816 245.914 93.818 C 250.867 93.819,255.270 93.727,255.698 93.614 C 257.886 93.038,258.964 92.518,259.766 91.651 C 259.913 91.493,260.191 91.192,260.384 90.984 C 260.577 90.776,260.952 89.948,261.218 89.145 L 261.701 87.684 261.701 59.265 C 261.701 26.234,261.554 28.632,263.713 26.416 C 264.569 25.539,265.376 24.903,265.635 24.903 C 265.881 24.903,266.552 24.653,267.127 24.347 L 268.173 23.791 278.266 23.791 L 288.359 23.791 289.404 24.347 C 289.979 24.653,290.640 24.903,290.872 24.903 C 291.104 24.903,291.976 25.593,292.808 26.438 L 294.322 27.973 294.576 29.955 C 294.755 31.350,294.830 40.286,294.830 60.137 C 294.830 92.214,294.693 89.866,296.685 91.771 C 298.598 93.600,296.253 93.463,328.405 93.616 C 344.119 93.691,357.259 93.832,357.606 93.931 C 358.568 94.206,360.095 95.728,360.794 97.111 L 361.423 98.353 361.423 144.904 C 361.423 181.111,361.363 191.493,361.154 191.622 C 361.006 191.714,360.727 192.165,360.535 192.624 C 360.343 193.084,360.039 193.517,359.860 193.585 C 359.680 193.654,359.533 193.850,359.533 194.020 C 359.533 194.191,359.447 194.330,359.341 194.330 C 359.235 194.330,358.863 194.555,358.514 194.830 C 357.166 195.893,359.863 195.858,279.822 195.858 C 199.781 195.858,202.478 195.893,201.130 194.830 C 200.781 194.555,200.409 194.330,200.304 194.330 C 200.198 194.330,200.111 194.191,200.111 194.020 C 200.111 193.850,199.964 193.654,199.785 193.585 C 199.605 193.517,199.301 193.084,199.109 192.624 C 198.917 192.165,198.639 191.714,198.491 191.622 C 198.280 191.493,198.221 173.681,198.221 110.681 L 198.221 29.906 198.833 28.695 C 199.169 28.028,199.444 27.353,199.444 27.194 C 199.444 27.034,199.578 26.904,199.742 26.904 C 199.906 26.904,200.154 26.654,200.293 26.348 C 200.432 26.042,200.683 25.792,200.850 25.792 C 201.017 25.792,201.335 25.592,201.556 25.347 C 201.778 25.103,202.128 24.903,202.334 24.903 C 202.541 24.903,203.150 24.660,203.689 24.363 L 204.669 23.824 214.897 23.808 C 224.532 23.794,225.165 23.817,225.811 24.211 M303.057 127.561 C 302.752 127.619,302.351 127.795,302.168 127.950 C 301.984 128.106,301.568 128.297,301.243 128.374 C 300.602 128.526,299.966 129.009,298.532 130.431 C 297.057 131.895,296.673 132.443,296.509 133.318 C 296.424 133.770,296.187 134.396,295.982 134.709 C 295.407 135.586,295.415 153.638,295.991 154.641 C 296.202 155.008,296.482 155.739,296.614 156.265 C 296.747 156.791,297.000 157.277,297.177 157.345 C 297.354 157.413,297.499 157.589,297.499 157.735 C 297.499 158.312,300.384 160.644,301.778 161.193 L 303.168 161.741 312.898 161.809 C 322.265 161.874,322.665 161.860,323.614 161.428 C 324.157 161.180,324.745 160.978,324.923 160.978 C 325.100 160.978,325.481 160.730,325.769 160.426 C 326.057 160.123,326.392 159.873,326.515 159.872 C 326.808 159.869,329.071 157.381,329.071 157.062 C 329.072 156.925,329.297 156.528,329.572 156.178 L 330.072 155.542 330.072 144.636 L 330.072 133.730 329.572 133.094 C 329.297 132.744,329.072 132.362,329.072 132.246 C 329.072 131.826,327.000 129.618,326.485 129.489 C 326.196 129.416,325.959 129.226,325.959 129.065 C 325.959 128.904,325.584 128.652,325.125 128.505 C 324.666 128.358,324.106 128.075,323.879 127.876 C 323.476 127.523,304.738 127.239,303.057 127.561 M323.624 128.799 C 326.053 129.636,328.222 131.842,329.060 134.328 C 329.522 135.699,329.535 136.029,329.471 145.081 L 329.405 154.419 328.662 155.929 C 326.446 160.433,324.853 160.950,313.138 160.967 C 301.598 160.983,299.604 160.382,297.554 156.265 C 296.157 153.458,296.144 135.481,297.538 133.025 C 298.726 130.931,300.966 129.172,303.096 128.661 C 305.274 128.138,322.032 128.251,323.624 128.799 " stroke="none" fill="#f48852" fill-rule="evenodd"></path><path id="path4" d="M72.435 16.901 C 71.735 17.012,70.885 17.243,70.545 17.414 C 70.206 17.586,69.482 17.794,68.937 17.878 C 68.393 17.961,67.642 18.213,67.270 18.438 C 66.897 18.662,66.217 18.965,65.759 19.112 C 65.300 19.259,64.925 19.471,64.925 19.584 C 64.925 19.696,64.795 19.789,64.636 19.789 C 64.124 19.789,61.744 21.475,60.277 22.876 C 59.494 23.624,58.776 24.236,58.680 24.236 C 58.585 24.236,58.446 24.427,58.372 24.660 C 58.298 24.894,57.991 25.247,57.690 25.444 C 57.389 25.641,57.143 25.950,57.143 26.131 C 57.143 26.311,57.058 26.459,56.954 26.459 C 56.738 26.459,55.375 28.512,55.034 29.350 C 54.910 29.655,54.644 30.156,54.444 30.461 C 54.244 30.767,54.014 31.392,53.934 31.851 C 53.853 32.310,53.708 32.685,53.610 32.685 C 53.403 32.685,52.918 34.202,52.918 34.850 C 52.918 35.095,52.718 35.921,52.474 36.687 C 51.917 38.428,51.855 43.153,52.369 44.580 C 52.545 45.069,52.799 46.070,52.933 46.804 C 53.067 47.538,53.369 48.450,53.604 48.831 C 53.838 49.212,54.030 49.774,54.030 50.080 C 54.030 50.385,54.216 50.873,54.444 51.165 C 54.672 51.457,54.936 51.946,55.030 52.251 C 55.125 52.557,55.414 53.076,55.672 53.405 C 55.931 53.733,56.491 54.484,56.918 55.072 C 58.873 57.769,63.909 62.016,65.168 62.030 C 65.363 62.033,65.693 62.222,65.901 62.452 C 66.108 62.681,66.641 62.928,67.084 62.999 C 67.527 63.071,68.422 63.409,69.075 63.750 L 70.260 64.369 70.261 70.275 C 70.261 77.186,70.357 76.896,67.942 77.340 C 67.120 77.492,66.081 77.812,65.634 78.052 C 65.186 78.292,64.669 78.494,64.484 78.502 C 64.298 78.510,63.446 78.905,62.590 79.379 C 61.734 79.854,60.734 80.383,60.367 80.554 C 60.000 80.725,59.563 81.031,59.395 81.233 C 59.227 81.435,58.952 81.601,58.783 81.601 C 58.615 81.601,58.299 81.776,58.080 81.990 C 57.862 82.204,57.287 82.675,56.802 83.037 C 54.952 84.417,50.695 89.130,50.695 89.800 C 50.695 89.925,50.558 90.108,50.391 90.206 C 50.225 90.304,49.911 90.729,49.696 91.151 C 49.480 91.573,49.166 92.055,48.998 92.223 C 48.831 92.390,48.694 92.680,48.694 92.866 C 48.694 93.053,48.493 93.488,48.247 93.832 C 48.002 94.177,47.738 94.793,47.662 95.201 C 47.586 95.609,47.347 96.242,47.132 96.609 C 46.917 96.976,46.673 97.626,46.590 98.054 C 46.507 98.482,46.227 99.483,45.967 100.278 C 45.266 102.426,45.268 111.965,45.971 113.841 C 46.223 114.514,46.497 115.464,46.580 115.953 C 46.663 116.442,46.911 117.193,47.132 117.621 C 47.353 118.049,47.645 118.812,47.781 119.318 C 47.917 119.823,48.178 120.360,48.361 120.512 C 48.544 120.664,48.694 120.942,48.694 121.129 C 48.694 121.317,48.929 121.780,49.218 122.158 C 49.506 122.536,49.813 123.071,49.900 123.346 C 49.987 123.621,50.154 123.847,50.271 123.847 C 50.388 123.847,50.571 124.077,50.678 124.359 C 51.222 125.790,57.625 132.296,58.489 132.296 C 58.587 132.296,58.836 132.464,59.041 132.669 C 59.436 133.064,60.305 133.586,61.586 134.198 C 62.012 134.402,62.601 134.757,62.895 134.989 C 63.188 135.220,63.643 135.409,63.905 135.409 C 64.167 135.409,64.589 135.554,64.844 135.732 C 65.098 135.910,65.995 136.253,66.839 136.494 C 67.682 136.736,68.848 137.103,69.431 137.310 L 70.490 137.687 70.431 144.139 C 70.381 149.612,70.322 150.616,70.039 150.756 C 68.827 151.353,67.603 151.840,66.984 151.969 C 66.588 152.051,66.209 152.208,66.141 152.318 C 66.074 152.427,65.597 152.724,65.083 152.979 C 63.314 153.852,61.470 155.044,60.812 155.741 C 60.689 155.870,60.139 156.370,59.589 156.851 C 59.038 157.333,58.020 158.483,57.326 159.408 C 56.632 160.333,55.871 161.340,55.634 161.645 C 55.398 161.951,55.126 162.451,55.031 162.757 C 54.936 163.063,54.672 163.552,54.444 163.843 C 54.216 164.135,54.030 164.588,54.030 164.850 C 54.030 165.112,53.875 165.548,53.685 165.819 C 53.495 166.090,53.189 167.038,53.005 167.925 C 52.822 168.813,52.527 169.967,52.350 170.491 C 51.914 171.784,51.927 176.761,52.369 177.988 C 52.545 178.477,52.798 179.477,52.931 180.211 C 53.064 180.945,53.307 181.754,53.472 182.010 C 53.637 182.266,53.889 182.913,54.033 183.448 C 54.177 183.982,54.486 184.662,54.718 184.958 C 54.951 185.254,55.142 185.634,55.142 185.802 C 55.142 186.074,55.699 186.949,56.867 188.511 C 57.239 189.009,60.904 192.727,61.590 193.303 C 62.782 194.304,65.991 196.109,66.579 196.109 C 66.740 196.109,66.991 196.253,67.137 196.428 C 67.282 196.604,68.074 196.900,68.897 197.087 C 69.719 197.275,70.760 197.581,71.209 197.769 C 72.379 198.258,79.920 198.261,81.087 197.773 C 81.530 197.588,82.549 197.285,83.350 197.099 C 84.151 196.913,84.961 196.628,85.149 196.465 C 85.338 196.302,85.792 196.098,86.159 196.011 C 86.526 195.925,87.026 195.672,87.271 195.451 C 87.515 195.230,87.966 194.973,88.271 194.881 C 88.577 194.789,89.127 194.478,89.494 194.191 C 89.861 193.903,90.398 193.491,90.687 193.276 C 91.508 192.666,94.942 189.277,94.942 189.077 C 94.942 188.979,95.145 188.695,95.393 188.446 C 96.009 187.828,97.156 186.055,97.161 185.714 C 97.163 185.561,97.365 185.236,97.610 184.992 C 97.854 184.747,98.054 184.395,98.054 184.209 C 98.054 184.024,98.298 183.398,98.595 182.820 C 98.892 182.241,99.204 181.191,99.288 180.486 C 99.372 179.781,99.520 179.156,99.617 179.096 C 100.351 178.642,100.457 171.264,99.754 169.580 C 99.559 169.115,99.335 168.215,99.256 167.580 C 99.176 166.945,98.935 166.126,98.721 165.759 C 98.506 165.392,98.211 164.717,98.064 164.258 C 97.918 163.799,97.713 163.424,97.610 163.424 C 97.506 163.424,97.310 163.086,97.174 162.673 C 97.038 162.260,96.730 161.744,96.490 161.527 C 96.250 161.309,96.053 161.022,96.053 160.888 C 96.053 160.754,95.828 160.377,95.553 160.049 C 95.278 159.722,94.753 159.082,94.386 158.627 C 94.019 158.172,93.329 157.439,92.852 156.999 C 92.375 156.558,91.825 156.044,91.629 155.856 C 90.682 154.946,89.050 153.880,87.224 152.979 C 86.710 152.724,86.233 152.427,86.166 152.318 C 86.098 152.208,85.719 152.051,85.323 151.969 C 84.704 151.840,83.480 151.353,82.268 150.756 C 81.985 150.616,81.925 149.612,81.876 144.139 L 81.817 137.687 82.876 137.308 C 83.459 137.100,84.636 136.725,85.492 136.475 C 86.348 136.225,87.246 135.883,87.487 135.714 C 87.728 135.546,88.140 135.409,88.402 135.409 C 88.664 135.409,89.119 135.220,89.412 134.989 C 89.706 134.757,90.295 134.409,90.721 134.215 C 91.147 134.020,91.691 133.734,91.931 133.579 C 93.895 132.305,94.741 131.709,95.587 131.002 C 97.042 129.785,99.314 127.516,99.432 127.161 C 99.512 126.922,99.747 126.990,100.458 127.461 C 100.965 127.797,101.432 128.071,101.496 128.071 C 101.560 128.071,101.787 128.228,102.001 128.419 C 102.927 129.247,104.413 130.290,104.669 130.292 C 104.822 130.294,104.947 130.385,104.947 130.495 C 104.947 130.605,105.272 130.900,105.670 131.150 C 106.067 131.400,106.793 131.908,107.282 132.280 C 107.771 132.651,108.417 133.082,108.717 133.237 C 110.166 133.986,110.543 134.805,109.894 135.796 C 109.384 136.575,109.303 145.102,109.800 145.701 C 109.962 145.896,110.231 146.706,110.397 147.499 C 110.563 148.293,110.844 149.174,111.021 149.457 C 111.198 149.741,111.412 150.272,111.497 150.639 C 111.582 151.006,111.791 151.460,111.960 151.648 C 112.129 151.836,112.423 152.361,112.613 152.815 C 112.802 153.269,113.056 153.641,113.177 153.641 C 113.298 153.641,113.396 153.749,113.396 153.880 C 113.396 154.847,118.794 160.186,120.606 161.011 C 120.921 161.155,121.178 161.348,121.178 161.441 C 121.178 161.535,121.554 161.733,122.012 161.883 C 122.471 162.032,123.081 162.338,123.369 162.561 C 123.656 162.785,124.257 163.035,124.703 163.118 C 125.149 163.201,125.715 163.400,125.961 163.559 C 126.206 163.719,127.307 164.002,128.407 164.188 C 129.506 164.374,131.081 164.649,131.907 164.799 C 133.095 165.014,133.720 165.013,134.908 164.795 C 135.734 164.644,137.310 164.367,138.410 164.181 C 139.511 163.995,140.622 163.705,140.879 163.538 C 141.136 163.371,141.713 163.166,142.160 163.082 C 142.606 162.998,143.196 162.755,143.471 162.542 C 143.745 162.329,144.344 162.032,144.803 161.883 C 145.261 161.733,145.636 161.537,145.636 161.447 C 145.636 161.357,145.987 161.116,146.415 160.912 C 146.843 160.708,147.193 160.446,147.193 160.330 C 147.193 160.214,147.418 160.048,147.693 159.962 C 148.291 159.774,152.529 155.552,152.529 155.144 C 152.529 154.988,152.729 154.735,152.974 154.582 C 153.218 154.429,153.419 154.171,153.419 154.007 C 153.419 153.844,153.666 153.423,153.967 153.071 C 154.269 152.720,154.576 152.161,154.649 151.829 C 154.722 151.497,154.918 151.112,155.086 150.973 C 155.254 150.834,155.458 150.401,155.541 150.012 C 155.623 149.623,155.881 148.991,156.114 148.607 C 156.347 148.223,156.626 147.222,156.735 146.384 C 156.843 145.545,157.052 144.558,157.198 144.191 C 157.554 143.300,157.557 138.177,157.202 137.298 C 157.053 136.932,156.842 135.940,156.733 135.094 C 156.624 134.248,156.399 133.348,156.233 133.093 C 156.068 132.838,155.759 132.104,155.547 131.462 C 155.335 130.820,155.085 130.295,154.992 130.295 C 154.899 130.295,154.702 129.889,154.553 129.393 C 154.405 128.898,154.139 128.437,153.962 128.369 C 153.785 128.301,153.641 128.123,153.641 127.972 C 153.641 127.338,147.996 121.178,147.415 121.178 C 147.311 121.178,146.944 120.942,146.598 120.653 C 146.253 120.364,145.720 120.049,145.415 119.954 C 145.110 119.858,144.760 119.655,144.637 119.503 C 144.514 119.351,144.016 119.100,143.530 118.946 C 143.045 118.792,142.518 118.536,142.360 118.379 C 142.203 118.221,141.600 118.024,141.020 117.941 C 140.441 117.859,139.466 117.577,138.855 117.317 C 137.325 116.664,129.330 116.595,128.107 117.224 C 127.699 117.434,126.766 117.724,126.034 117.868 C 125.302 118.012,124.577 118.257,124.422 118.412 C 124.267 118.567,123.713 118.821,123.192 118.978 C 122.670 119.134,122.194 119.393,122.132 119.553 C 122.071 119.713,121.834 119.844,121.607 119.844 C 121.380 119.844,120.852 120.145,120.434 120.511 C 120.016 120.878,119.566 121.178,119.434 121.178 C 119.301 121.178,119.086 121.379,118.955 121.623 C 118.824 121.868,118.588 122.068,118.431 122.068 C 118.274 122.068,117.752 122.504,117.272 123.037 C 116.036 124.408,114.867 124.578,114.219 123.481 C 114.121 123.315,113.908 123.180,113.746 123.180 C 113.584 123.180,113.336 123.041,113.195 122.872 C 113.055 122.702,112.267 122.103,111.445 121.540 C 110.623 120.978,109.300 120.056,108.505 119.493 C 107.710 118.930,106.734 118.268,106.337 118.023 C 105.444 117.472,105.356 116.290,106.073 114.472 C 107.163 111.707,107.161 102.407,106.070 99.638 C 105.196 97.421,105.384 96.977,107.919 95.266 C 108.637 94.782,109.501 94.186,109.841 93.941 C 110.180 93.696,111.166 93.010,112.032 92.415 C 112.898 91.820,113.722 91.194,113.862 91.025 C 114.003 90.856,114.240 90.717,114.390 90.717 C 114.539 90.717,114.841 90.519,115.059 90.277 C 115.485 89.807,115.909 90.030,117.558 91.588 C 117.828 91.845,118.382 92.279,118.788 92.555 C 119.194 92.830,119.673 93.186,119.852 93.345 C 120.645 94.048,124.381 96.053,124.899 96.053 C 125.064 96.053,125.612 96.264,126.117 96.522 C 126.693 96.816,127.788 97.067,129.054 97.195 C 130.164 97.308,131.623 97.472,132.296 97.561 C 132.968 97.650,134.019 97.651,134.630 97.563 C 135.242 97.476,136.666 97.303,137.796 97.180 C 139.021 97.045,140.206 96.773,140.733 96.504 C 141.219 96.256,141.751 96.053,141.916 96.053 C 142.507 96.053,146.152 94.049,147.156 93.172 C 147.442 92.922,147.778 92.718,147.903 92.718 C 148.378 92.718,153.419 87.332,153.419 86.824 C 153.419 86.748,153.657 86.367,153.949 85.977 C 154.240 85.588,154.554 85.019,154.646 84.714 C 154.737 84.408,154.890 84.107,154.985 84.046 C 155.140 83.945,155.530 83.048,156.433 80.712 C 156.599 80.283,156.739 79.571,156.744 79.127 C 156.749 78.684,156.912 77.884,157.106 77.349 C 157.545 76.138,157.611 71.163,157.202 70.150 C 157.053 69.783,156.845 68.814,156.740 67.996 C 156.634 67.178,156.343 66.129,156.095 65.665 C 155.846 65.200,155.642 64.733,155.642 64.626 C 155.642 64.262,154.019 61.145,153.829 61.145 C 153.726 61.145,153.641 61.008,153.641 60.840 C 153.641 59.719,148.425 54.560,145.821 53.106 C 145.458 52.903,144.985 52.578,144.770 52.383 C 144.555 52.188,144.236 52.029,144.061 52.029 C 143.886 52.029,143.289 51.787,142.734 51.492 C 142.178 51.196,141.329 50.885,140.845 50.800 C 140.362 50.715,139.743 50.505,139.469 50.333 C 138.081 49.463,128.742 49.456,127.359 50.324 C 127.078 50.501,126.457 50.714,125.978 50.798 C 125.499 50.882,124.599 51.201,123.977 51.506 C 121.339 52.801,120.167 53.458,120.000 53.735 C 119.902 53.897,119.706 54.030,119.563 54.030 C 119.421 54.030,119.101 54.216,118.852 54.443 C 117.626 55.561,114.573 58.667,114.222 59.151 C 114.004 59.453,113.529 60.089,113.166 60.564 C 112.804 61.040,112.507 61.551,112.507 61.702 C 112.507 61.852,112.313 62.221,112.076 62.522 C 111.839 62.824,111.576 63.362,111.492 63.720 C 111.407 64.077,111.160 64.669,110.941 65.036 C 110.723 65.403,110.471 66.203,110.382 66.815 C 110.292 67.426,110.058 68.172,109.862 68.473 C 109.286 69.354,109.339 77.657,109.926 78.626 C 110.363 79.348,110.291 80.489,109.808 80.489 C 109.674 80.489,109.222 80.789,108.804 81.156 C 108.386 81.523,107.931 81.823,107.793 81.823 C 107.655 81.823,107.383 81.975,107.189 82.160 C 106.996 82.345,106.287 82.860,105.614 83.304 C 104.942 83.748,104.212 84.297,103.994 84.523 C 103.775 84.750,103.455 84.936,103.282 84.936 C 103.109 84.936,102.888 85.067,102.790 85.226 C 102.693 85.386,102.237 85.744,101.779 86.023 C 101.320 86.301,100.945 86.621,100.945 86.733 C 100.945 86.845,100.545 86.937,100.056 86.937 C 99.524 86.937,99.166 86.832,99.166 86.676 C 99.166 86.350,97.043 84.260,95.364 82.935 C 94.187 82.006,93.533 81.564,92.068 80.712 C 91.753 80.528,91.445 80.322,91.384 80.254 C 91.144 79.985,87.993 78.488,87.668 78.488 C 87.479 78.488,87.011 78.298,86.630 78.066 C 86.249 77.834,85.336 77.531,84.603 77.393 C 83.869 77.255,82.843 76.922,82.324 76.652 L 81.379 76.163 81.382 70.266 L 81.384 64.369 82.438 64.002 C 83.017 63.801,83.991 63.466,84.603 63.258 C 85.964 62.796,85.908 62.822,87.271 62.032 C 87.882 61.677,88.712 61.229,89.115 61.037 C 89.517 60.844,89.903 60.539,89.972 60.360 C 90.041 60.180,90.229 60.033,90.389 60.033 C 90.977 60.033,96.053 54.731,96.053 54.116 C 96.053 54.043,96.304 53.686,96.609 53.322 C 96.915 52.959,97.165 52.533,97.165 52.375 C 97.165 52.218,97.350 51.850,97.576 51.559 C 97.802 51.267,98.058 50.736,98.146 50.379 C 98.233 50.022,98.485 49.500,98.706 49.219 C 98.929 48.935,99.174 48.121,99.257 47.383 C 99.340 46.653,99.578 45.725,99.787 45.319 C 100.342 44.239,100.344 37.389,99.790 36.242 C 99.583 35.814,99.353 34.964,99.279 34.352 C 99.205 33.741,98.907 32.740,98.618 32.129 C 98.328 31.518,97.981 30.767,97.846 30.461 C 97.711 30.156,97.360 29.505,97.065 29.016 C 96.770 28.527,96.359 27.827,96.151 27.460 C 95.943 27.093,95.641 26.643,95.480 26.459 C 95.318 26.276,94.906 25.800,94.564 25.403 C 93.897 24.628,93.575 24.283,93.118 23.853 C 92.641 23.404,92.277 23.040,91.778 22.513 C 91.517 22.237,91.172 22.012,91.010 22.012 C 90.849 22.012,90.717 21.918,90.717 21.802 C 90.717 21.570,88.705 20.180,87.827 19.805 C 87.521 19.674,87.121 19.477,86.937 19.367 C 85.828 18.701,84.019 17.944,83.157 17.786 C 82.607 17.685,81.707 17.436,81.156 17.232 C 79.968 16.792,74.440 16.582,72.435 16.901 M80.600 17.932 C 81.946 18.239,83.329 18.632,83.676 18.806 C 84.022 18.979,84.415 19.122,84.548 19.122 C 84.889 19.122,88.097 20.714,88.454 21.060 C 88.616 21.217,88.828 21.345,88.926 21.345 C 89.468 21.345,93.781 25.385,94.688 26.742 C 94.889 27.043,95.347 27.727,95.706 28.264 C 98.795 32.873,99.996 39.404,98.878 45.513 C 98.502 47.564,98.349 48.016,97.122 50.695 C 95.760 53.671,91.983 58.313,89.979 59.477 C 89.590 59.703,89.192 60.020,89.094 60.183 C 88.996 60.345,88.729 60.478,88.500 60.478 C 88.270 60.478,87.786 60.728,87.422 61.034 C 87.059 61.340,86.675 61.590,86.568 61.590 C 86.462 61.590,86.007 61.787,85.557 62.028 C 85.107 62.269,84.258 62.584,83.670 62.728 C 80.605 63.478,80.712 63.203,80.712 70.380 C 80.712 77.791,80.498 77.267,83.824 78.012 C 85.040 78.284,87.171 79.031,88.397 79.614 C 88.894 79.851,89.372 80.044,89.458 80.044 C 89.544 80.044,90.038 80.313,90.555 80.642 C 94.233 82.978,95.499 83.934,97.359 85.780 C 99.751 88.152,100.198 88.273,101.815 86.986 C 102.254 86.637,102.788 86.286,103.002 86.207 C 103.216 86.127,103.391 85.965,103.391 85.847 C 103.391 85.730,103.573 85.575,103.796 85.504 C 104.019 85.434,104.397 85.202,104.635 84.989 C 105.282 84.413,107.108 83.157,107.300 83.157 C 107.392 83.157,107.625 83.004,107.819 82.816 C 108.013 82.629,108.747 82.073,109.450 81.581 L 110.728 80.687 110.728 79.496 C 110.728 78.841,110.578 77.521,110.395 76.562 C 109.874 73.840,110.040 71.190,110.956 67.593 C 111.240 66.477,112.201 63.823,112.388 63.637 C 112.475 63.551,112.672 63.180,112.826 62.813 C 113.238 61.832,114.577 59.800,115.371 58.950 C 115.753 58.541,116.064 58.176,116.064 58.137 C 116.064 57.849,118.756 55.513,120.669 54.141 C 121.502 53.544,124.029 52.251,124.364 52.251 C 124.511 52.251,124.980 52.067,125.406 51.842 C 129.043 49.921,137.203 49.913,141.325 51.827 C 141.828 52.060,142.320 52.251,142.419 52.251 C 142.763 52.251,145.527 53.676,145.956 54.075 C 146.193 54.295,146.463 54.475,146.556 54.475 C 146.792 54.475,149.301 56.583,150.081 57.437 C 151.486 58.976,152.084 59.695,152.084 59.845 C 152.084 59.931,152.230 60.147,152.408 60.325 C 153.484 61.401,155.470 65.746,156.138 68.482 C 156.454 69.780,156.454 77.412,156.138 78.710 C 155.769 80.222,155.030 82.282,154.531 83.188 C 154.286 83.632,154.086 84.094,154.086 84.214 C 154.086 86.376,146.475 93.494,142.746 94.820 C 142.563 94.885,142.262 95.035,142.079 95.152 C 140.161 96.376,132.612 97.197,129.294 96.542 C 127.659 96.219,124.897 95.351,124.514 95.040 C 124.330 94.891,123.856 94.700,123.460 94.616 C 123.064 94.532,122.682 94.369,122.611 94.254 C 122.540 94.140,122.075 93.838,121.577 93.584 C 120.523 93.046,120.649 93.140,118.550 91.337 C 116.056 89.194,115.600 88.969,114.839 89.507 C 114.502 89.744,114.047 90.045,113.827 90.174 C 113.425 90.410,112.874 90.801,111.493 91.829 C 111.083 92.135,110.388 92.635,109.950 92.941 C 109.512 93.246,108.815 93.747,108.401 94.052 C 107.987 94.358,107.084 94.994,106.394 95.465 C 104.688 96.632,104.638 96.843,105.317 99.984 C 106.631 106.063,106.628 108.140,105.294 114.264 C 104.561 117.632,104.580 117.711,106.413 118.955 C 107.224 119.505,108.202 120.181,108.585 120.457 C 108.969 120.732,109.633 121.204,110.061 121.505 C 110.489 121.806,111.240 122.354,111.729 122.723 C 112.218 123.092,112.843 123.512,113.118 123.656 C 113.394 123.800,113.619 123.992,113.619 124.082 C 113.619 124.172,114.022 124.457,114.515 124.714 C 115.621 125.290,116.353 125.043,117.732 123.628 C 119.201 122.119,121.919 120.439,125.403 118.884 C 125.831 118.693,126.782 118.421,127.515 118.280 C 128.249 118.138,129.456 117.882,130.198 117.710 C 131.751 117.351,134.888 117.308,136.187 117.628 C 136.676 117.749,137.907 117.998,138.924 118.182 C 139.940 118.366,140.990 118.654,141.258 118.821 C 141.526 118.988,142.033 119.191,142.385 119.273 C 142.737 119.355,143.386 119.667,143.827 119.967 C 144.267 120.266,144.748 120.511,144.894 120.511 C 145.040 120.511,145.292 120.637,145.454 120.790 C 145.615 120.944,146.322 121.460,147.023 121.937 C 149.230 123.438,151.580 126.007,153.356 128.858 C 156.946 134.622,157.619 145.383,154.675 149.960 C 154.514 150.211,154.274 150.732,154.142 151.117 C 153.532 152.899,148.154 159.421,147.295 159.422 C 147.177 159.422,146.791 159.672,146.436 159.978 C 146.080 160.284,145.667 160.534,145.518 160.534 C 145.368 160.534,145.126 160.678,144.979 160.855 C 144.832 161.032,144.245 161.350,143.673 161.561 C 143.102 161.772,142.499 162.048,142.334 162.175 C 142.020 162.415,140.100 162.983,137.632 163.567 C 135.247 164.131,129.341 163.875,127.242 163.116 C 126.357 162.796,125.465 162.535,125.258 162.535 C 125.051 162.535,124.724 162.402,124.531 162.239 C 124.338 162.076,123.713 161.771,123.141 161.560 C 122.570 161.350,121.983 161.032,121.836 160.855 C 121.689 160.678,121.438 160.534,121.278 160.534 C 121.119 160.534,120.856 160.407,120.694 160.251 C 120.532 160.096,119.890 159.598,119.267 159.145 C 117.068 157.548,112.729 152.342,112.729 151.301 C 112.729 151.150,112.579 150.903,112.396 150.750 C 112.212 150.598,112.062 150.328,112.062 150.150 C 112.062 149.971,111.814 149.204,111.510 148.445 C 110.194 145.156,109.823 140.911,110.508 136.995 C 111.009 134.131,110.901 133.572,109.728 132.971 C 109.361 132.783,109.004 132.553,108.934 132.459 C 108.865 132.366,108.147 131.856,107.339 131.325 C 106.531 130.794,105.705 130.195,105.504 129.994 C 105.303 129.792,105.052 129.628,104.947 129.628 C 104.842 129.628,104.622 129.503,104.457 129.350 C 103.771 128.712,102.291 127.626,102.108 127.626 C 102.000 127.626,101.678 127.378,101.393 127.074 C 100.297 125.907,99.576 126.057,97.891 127.802 C 96.246 129.505,94.068 131.363,93.040 131.940 C 92.680 132.142,91.984 132.555,91.495 132.858 C 89.249 134.249,85.167 135.941,83.440 136.196 C 82.924 136.273,82.173 136.556,81.773 136.826 L 81.045 137.316 80.986 144.140 L 80.927 150.963 81.791 151.508 C 82.266 151.808,83.043 152.125,83.517 152.212 C 84.285 152.352,86.019 153.089,86.937 153.664 C 87.121 153.779,87.623 154.046,88.052 154.257 C 90.145 155.286,95.609 160.562,95.609 161.555 C 95.609 161.697,95.746 161.927,95.913 162.066 C 96.685 162.707,98.149 166.279,98.731 168.945 C 99.568 172.776,99.406 178.226,98.371 181.051 C 98.182 181.567,97.922 182.340,97.793 182.768 C 97.665 183.196,97.384 183.797,97.169 184.102 C 96.954 184.408,96.706 184.894,96.616 185.181 C 96.397 185.885,94.672 188.389,93.805 189.259 C 93.599 189.466,93.395 189.717,93.352 189.815 C 93.248 190.054,90.764 192.296,89.832 192.992 C 88.974 193.634,88.495 193.926,87.271 194.554 C 86.782 194.805,86.231 195.098,86.048 195.204 C 85.155 195.723,82.679 196.582,81.551 196.766 C 80.856 196.879,80.058 197.103,79.777 197.263 C 79.065 197.669,73.242 197.669,72.530 197.263 C 72.249 197.103,71.467 196.882,70.792 196.772 C 69.636 196.584,66.996 195.679,66.259 195.219 C 66.076 195.105,65.525 194.805,65.036 194.554 C 61.824 192.905,58.145 189.477,56.565 186.659 C 56.360 186.292,56.130 185.942,56.056 185.881 C 55.757 185.636,54.705 183.212,54.079 181.323 C 52.023 175.122,53.084 166.659,56.532 161.757 C 56.876 161.267,57.326 160.617,57.531 160.311 C 58.646 158.654,62.390 155.257,64.025 154.421 C 64.447 154.205,64.929 153.891,65.097 153.723 C 65.264 153.556,65.539 153.419,65.706 153.419 C 65.874 153.419,66.342 153.224,66.747 152.986 C 67.151 152.748,67.961 152.447,68.547 152.316 C 69.133 152.185,70.009 151.828,70.493 151.523 L 71.373 150.967 71.373 144.205 L 71.373 137.442 70.788 136.982 C 70.466 136.729,69.841 136.437,69.398 136.332 C 66.914 135.747,63.943 134.738,63.551 134.346 C 63.402 134.197,63.169 134.074,63.034 134.074 C 62.899 134.074,62.315 133.774,61.737 133.407 C 61.158 133.041,60.543 132.740,60.370 132.740 C 60.197 132.740,59.975 132.605,59.878 132.439 C 59.780 132.274,59.450 132.009,59.144 131.850 C 57.579 131.040,53.947 127.592,52.411 125.459 C 52.037 124.939,51.660 124.514,51.573 124.514 C 51.487 124.514,51.291 124.213,51.140 123.847 C 50.988 123.480,50.786 123.180,50.692 123.180 C 50.598 123.180,50.357 122.804,50.157 122.346 C 49.957 121.887,49.459 120.862,49.051 120.067 C 47.673 117.383,47.054 115.228,46.211 110.172 C 45.948 108.593,46.117 103.097,46.456 102.205 C 46.587 101.862,46.804 100.863,46.940 99.985 C 47.076 99.106,47.362 98.038,47.575 97.610 C 47.789 97.182,48.035 96.531,48.123 96.165 C 48.267 95.563,48.739 94.543,50.170 91.743 C 50.431 91.231,50.806 90.679,51.003 90.515 C 51.201 90.352,51.362 90.080,51.362 89.912 C 51.362 89.743,51.449 89.605,51.555 89.605 C 51.661 89.605,52.012 89.206,52.335 88.717 C 55.224 84.351,65.311 77.821,69.166 77.821 C 71.081 77.821,71.188 77.414,71.159 70.266 C 71.129 63.218,71.188 63.414,68.937 62.790 C 67.836 62.485,67.080 62.145,64.084 60.610 C 62.938 60.023,60.569 58.074,59.128 56.533 C 48.661 45.341,52.029 26.754,65.746 20.016 C 66.747 19.524,67.665 19.122,67.784 19.122 C 67.904 19.122,68.285 18.979,68.631 18.804 C 69.403 18.414,72.824 17.564,74.486 17.349 C 76.172 17.131,77.737 17.280,80.600 17.932 M73.819 29.380 C 63.896 31.012,61.239 44.735,69.735 50.469 C 72.624 52.419,77.336 53.064,79.838 51.853 C 80.395 51.583,80.950 51.362,81.071 51.362 C 81.690 51.362,84.402 49.105,85.496 47.679 C 88.366 43.938,88.422 37.893,85.622 34.019 C 82.964 30.342,78.542 28.604,73.819 29.380 M80.044 30.635 C 80.472 30.905,80.947 31.127,81.099 31.128 C 82.159 31.131,85.500 34.659,86.046 36.354 C 86.204 36.843,86.469 37.440,86.635 37.681 C 87.064 38.304,87.058 43.308,86.629 43.921 C 86.459 44.164,86.194 44.784,86.039 45.301 C 85.884 45.818,85.572 46.408,85.347 46.612 C 85.121 46.817,84.936 47.085,84.936 47.209 C 84.936 47.487,82.471 49.805,82.176 49.805 C 82.059 49.805,81.757 49.994,81.504 50.224 C 79.442 52.106,73.461 52.048,70.514 50.117 C 69.630 49.538,67.371 47.445,67.371 47.205 C 67.371 47.122,67.179 46.848,66.945 46.596 C 65.384 44.915,64.766 39.843,65.835 37.488 C 66.063 36.986,66.251 36.402,66.254 36.189 C 66.267 35.169,70.220 31.131,71.208 31.128 C 71.360 31.127,71.795 30.937,72.175 30.705 C 73.625 29.821,78.685 29.776,80.044 30.635 M131.341 62.132 C 130.878 62.298,130.135 62.501,129.691 62.585 C 128.188 62.867,124.291 65.603,124.291 66.377 C 124.291 66.527,124.144 66.771,123.965 66.920 C 121.773 68.739,121.122 75.805,122.883 78.659 C 124.247 80.871,124.854 81.665,125.685 82.323 C 127.009 83.370,128.386 84.269,128.666 84.269 C 128.797 84.269,129.392 84.486,129.988 84.751 C 131.541 85.442,135.265 85.438,136.786 84.745 C 137.360 84.483,137.934 84.269,138.060 84.269 C 139.239 84.269,143.858 79.862,143.858 78.736 C 143.858 78.607,144.083 78.073,144.358 77.550 C 144.805 76.699,144.858 76.279,144.858 73.596 L 144.858 70.595 144.029 68.927 C 142.849 66.553,140.216 63.601,139.271 63.593 C 139.133 63.592,138.906 63.453,138.767 63.285 C 138.627 63.117,138.040 62.854,137.461 62.702 C 136.882 62.549,135.980 62.286,135.456 62.118 C 134.260 61.734,132.441 61.740,131.341 62.132 M137.556 63.537 C 137.941 63.811,138.395 64.036,138.563 64.036 C 139.629 64.036,143.121 68.035,143.513 69.705 C 143.599 70.072,143.819 70.689,144.002 71.075 C 145.111 73.421,143.491 79.131,141.078 81.381 C 140.145 82.252,139.528 82.713,139.297 82.713 C 139.148 82.713,138.785 82.902,138.490 83.134 C 138.195 83.366,136.938 83.824,135.695 84.152 L 133.437 84.747 131.254 84.194 C 127.996 83.368,123.847 80.377,123.847 78.855 C 123.847 78.689,123.575 78.064,123.244 77.465 C 122.278 75.720,122.345 71.440,123.370 69.372 C 124.954 66.175,126.642 64.596,129.961 63.204 C 131.192 62.688,136.704 62.930,137.556 63.537 M73.374 91.142 C 72.212 91.348,70.693 91.787,69.997 92.118 C 69.301 92.448,68.626 92.718,68.496 92.718 C 68.366 92.718,68.260 92.806,68.260 92.914 C 68.260 93.021,67.944 93.240,67.558 93.400 C 66.104 94.002,62.165 98.347,61.694 99.868 C 61.605 100.155,61.343 100.765,61.111 101.224 C 59.402 104.612,59.866 111.436,62.046 114.953 C 62.159 115.136,62.444 115.636,62.678 116.064 C 63.185 116.988,66.053 119.822,67.153 120.484 C 73.222 124.140,78.852 124.174,84.986 120.593 C 88.399 118.600,91.176 114.313,92.081 109.640 L 92.571 107.106 92.067 104.490 C 91.790 103.051,91.326 101.390,91.036 100.798 C 90.746 100.206,90.505 99.613,90.502 99.479 C 90.498 99.345,90.295 99.054,90.050 98.833 C 89.805 98.611,89.605 98.289,89.605 98.115 C 89.605 97.219,84.638 92.986,82.845 92.353 C 82.365 92.184,81.855 91.947,81.710 91.827 C 81.432 91.596,76.685 90.706,75.931 90.744 C 75.686 90.756,74.536 90.935,73.374 91.142 M78.094 91.816 C 79.570 91.948,80.369 92.121,80.611 92.364 C 80.806 92.559,81.184 92.719,81.450 92.720 C 81.716 92.720,82.235 92.886,82.601 93.087 C 82.968 93.289,83.578 93.619,83.955 93.822 C 85.409 94.602,88.703 97.815,89.262 98.999 C 89.479 99.458,89.745 99.833,89.853 99.833 C 89.961 99.833,90.051 100.008,90.052 100.222 C 90.053 100.436,90.325 101.162,90.656 101.834 C 91.587 103.726,91.591 110.417,90.662 112.285 C 90.328 112.957,90.053 113.667,90.052 113.862 C 90.051 114.057,89.850 114.398,89.605 114.619 C 89.361 114.841,89.161 115.149,89.161 115.304 C 89.161 115.745,86.124 118.865,84.971 119.609 C 84.401 119.977,83.814 120.380,83.666 120.507 C 83.518 120.633,83.167 120.826,82.888 120.936 C 82.608 121.047,81.829 121.370,81.156 121.654 C 79.332 122.426,72.907 122.442,71.358 121.679 C 70.800 121.404,70.200 121.177,70.024 121.174 C 69.849 121.172,69.265 120.872,68.727 120.507 C 68.189 120.143,67.664 119.844,67.560 119.844 C 67.456 119.844,67.189 119.669,66.968 119.455 C 66.746 119.241,66.064 118.604,65.452 118.039 C 64.245 116.925,62.924 115.246,62.924 114.825 C 62.924 114.681,62.774 114.439,62.592 114.287 C 62.409 114.136,62.158 113.598,62.033 113.092 C 61.907 112.587,61.632 111.831,61.420 111.412 C 60.859 110.305,60.849 103.542,61.407 102.691 C 61.612 102.378,61.848 101.756,61.932 101.309 C 62.016 100.862,62.260 100.272,62.474 99.998 C 62.688 99.724,62.934 99.271,63.022 98.992 C 63.109 98.713,63.430 98.213,63.735 97.881 C 65.237 96.242,66.632 94.924,66.982 94.813 C 67.196 94.745,67.371 94.597,67.371 94.485 C 67.371 94.373,67.696 94.131,68.093 93.948 C 68.491 93.765,69.165 93.414,69.591 93.167 C 70.017 92.920,70.546 92.718,70.766 92.718 C 70.986 92.718,71.425 92.549,71.741 92.341 C 72.062 92.131,73.017 91.900,73.901 91.818 C 74.773 91.738,75.586 91.661,75.709 91.647 C 75.831 91.633,76.904 91.709,78.094 91.816 M132.028 129.080 C 131.945 129.163,131.213 129.371,130.402 129.541 C 128.341 129.973,127.108 130.694,125.181 132.597 C 122.210 135.529,121.150 139.417,122.155 143.695 C 122.500 145.167,122.645 145.479,123.827 147.304 C 124.688 148.634,127.555 151.195,128.182 151.195 C 128.246 151.195,128.773 151.420,129.352 151.695 C 131.968 152.937,136.422 152.398,139.839 150.426 C 140.452 150.072,142.746 147.872,142.746 147.638 C 142.746 147.554,142.996 147.194,143.302 146.838 C 143.607 146.483,143.857 146.070,143.857 145.921 C 143.858 145.772,144.083 145.222,144.358 144.698 C 144.805 143.848,144.858 143.427,144.858 140.745 C 144.858 138.062,144.805 137.642,144.358 136.791 C 144.083 136.268,143.858 135.753,143.858 135.646 C 143.858 134.710,141.093 131.762,139.143 130.619 C 137.315 129.548,132.584 128.524,132.028 129.080 M137.335 130.550 C 137.560 130.748,137.993 130.985,138.299 131.078 C 139.383 131.407,142.524 134.241,142.524 134.890 C 142.524 135.061,142.660 135.253,142.828 135.317 C 142.995 135.381,143.306 136.079,143.520 136.869 C 143.734 137.658,143.997 138.359,144.105 138.426 C 144.359 138.583,144.364 142.904,144.111 143.061 C 144.005 143.126,143.790 143.657,143.632 144.241 C 143.183 145.908,140.451 149.639,139.680 149.639 C 139.589 149.639,139.153 149.884,138.713 150.183 C 138.272 150.483,137.624 150.792,137.272 150.871 C 136.919 150.950,136.221 151.164,135.719 151.345 C 132.807 152.399,127.608 150.710,125.292 147.958 C 124.925 147.522,124.450 146.972,124.236 146.735 C 124.022 146.498,123.847 146.193,123.847 146.058 C 123.847 145.923,123.578 145.297,123.250 144.668 C 121.925 142.126,122.512 137.150,124.437 134.609 C 124.724 134.231,124.958 133.806,124.958 133.664 C 124.958 133.523,125.108 133.407,125.292 133.407 C 125.475 133.407,125.625 133.309,125.625 133.188 C 125.625 132.872,128.311 130.962,128.755 130.962 C 128.961 130.962,129.248 130.818,129.394 130.641 C 129.950 129.972,136.591 129.896,137.335 130.550 M73.708 162.672 C 72.756 162.912,70.360 163.962,70.126 164.242 C 69.990 164.403,69.802 164.536,69.708 164.536 C 69.055 164.536,66.405 167.597,65.525 169.368 C 64.379 171.674,64.268 176.702,65.320 178.645 C 66.612 181.030,67.360 181.984,69.083 183.439 C 74.534 188.044,82.953 185.960,86.770 179.061 L 87.487 177.765 87.490 174.208 L 87.493 170.650 86.765 169.330 C 85.528 167.087,83.301 164.536,82.581 164.536 C 82.429 164.536,82.272 164.447,82.231 164.338 C 81.834 163.280,75.898 162.120,73.708 162.672 M79.600 163.864 C 80.395 164.143,81.252 164.558,81.504 164.787 C 81.757 165.016,82.088 165.203,82.241 165.203 C 82.534 165.203,84.936 167.503,84.936 167.783 C 84.936 167.874,85.101 168.130,85.303 168.353 C 86.793 169.999,87.531 175.659,86.505 177.573 C 86.253 178.042,86.048 178.533,86.048 178.663 C 86.048 179.054,84.313 181.508,83.657 182.045 C 83.321 182.320,82.683 182.846,82.239 183.213 C 81.794 183.580,81.275 183.880,81.084 183.880 C 80.893 183.880,80.356 184.105,79.890 184.380 C 78.633 185.123,73.736 185.120,72.327 184.375 C 71.812 184.103,71.281 183.880,71.146 183.880 C 70.629 183.880,67.863 181.401,67.182 180.328 C 66.986 180.019,66.698 179.687,66.542 179.589 C 66.387 179.491,66.257 179.191,66.254 178.922 C 66.251 178.653,66.060 178.016,65.829 177.508 C 64.756 175.145,65.375 170.103,66.945 168.413 C 67.179 168.160,67.371 167.878,67.371 167.787 C 67.371 167.553,69.745 165.203,69.981 165.203 C 70.088 165.203,70.504 164.960,70.907 164.663 C 71.309 164.366,72.004 164.060,72.451 163.982 C 72.897 163.905,73.513 163.697,73.819 163.521 C 74.651 163.042,77.787 163.228,79.600 163.864 " stroke="none" fill="#9c9c9c" fill-rule="evenodd"></path></g></svg>